<svg width="500" height="500" version="1.1" xmlns="http://www.w3.org/2000/svg" desc="Created with imagetracer.js version 1.2.6" ><path fill="rgb(145,195,208)" stroke="rgb(145,195,208)" stroke-width="1" opacity="1" d="M 241.5 108 L 241 109.5 L 240.5 113 L 240 109.5 L 241.5 108 Z " /><path fill="rgb(145,195,208)" stroke="rgb(145,195,208)" stroke-width="1" opacity="1" d="M 243.5 108 L 246 108.5 L 243.5 109 L 243.5 108 Z " /><path fill="rgb(145,195,208)" stroke="rgb(145,195,208)" stroke-width="1" opacity="1" d="M 250.5 109 L 254 109.5 L 250.5 110 L 250.5 109 Z " /><path fill="rgb(145,195,208)" stroke="rgb(145,195,208)" stroke-width="1" opacity="1" d="M 257.5 110 L 261 110.5 L 257.5 111 L 257.5 110 Z " /><path fill="rgb(145,195,208)" stroke="rgb(145,195,208)" stroke-width="1" opacity="1" d="M 265.5 111 L 269 111.5 L 265.5 112 L 265.5 111 Z " /><path fill="rgb(145,195,208)" stroke="rgb(145,195,208)" stroke-width="1" opacity="1" d="M 272.5 112 L 276 112.5 L 272.5 113 L 272.5 112 Z " /><path fill="rgb(145,195,208)" stroke="rgb(145,195,208)" stroke-width="1" opacity="1" d="M 280.5 113 L 284 113.5 L 280.5 114 L 280.5 113 Z " /><path fill="rgb(145,195,208)" stroke="rgb(145,195,208)" stroke-width="1" opacity="1" d="M 288.5 114 L 292 114.5 L 288.5 115 L 288.5 114 Z " /><path fill="rgb(145,195,208)" stroke="rgb(145,195,208)" stroke-width="1" opacity="1" d="M 110.5 115 L 194 115.5 L 117 116.5 L 194 117 L 194 123 L 191.5 123 Q 189.8 120.3 188 124.5 L 188 131 L 176.5 131 L 175 132.5 L 175 266 L 171.5 267 L 153.5 267 L 150 265.5 L 151 264.5 L 151 164 Q 148 162 140.5 163 L 139 164.5 L 138 178.5 L 140 182.5 L 139.5 184 L 116.5 184 L 112 186 Q 113.5 189.7 110.5 189 L 109 189.5 L 108 187.5 L 108 169.5 L 109 168.5 L 109 144.5 L 108 143.5 L 108 118.5 L 110.5 115 Z M 113 119 L 111 121 L 111 146 L 115 145 L 115 123 L 116 122 L 190 122 L 190 119 L 113 119 Z M 116 146 L 115 147 Q 109 145 110 149 L 112 148 L 118 150 L 136 150 L 137 149 L 137 146 L 116 146 Z M 111 150 L 111 184 L 113 185 L 115 184 L 115 151 L 111 150 Z " /><path fill="rgb(145,195,208)" stroke="rgb(145,195,208)" stroke-width="1" opacity="1" d="M 297.5 115 L 348.5 115 L 351 116 L 352 121.5 L 351 122.5 L 350.5 133 L 350 124 L 346.5 123 L 345 124.5 L 345 140.5 L 343.5 142 L 337 140.5 L 340 140 L 340 130.5 Q 336.8 131.5 338 125.5 L 339 122.5 L 334 120.5 L 337.5 120 Q 339 123.5 345.5 122 L 347 119 L 327.5 120 L 308.5 116 L 297.5 116 L 297.5 115 Z M 318 116 L 318 117 L 348 117 L 318 116 Z " /><path fill="rgb(145,195,208)" stroke="rgb(145,195,208)" stroke-width="1" opacity="1" d="M 239.5 116 L 240 120.5 L 239 120.5 L 239.5 116 Z " /><path fill="rgb(145,195,208)" stroke="rgb(145,195,208)" stroke-width="1" opacity="1" d="M 195.5 120 L 196 122 L 202 122.5 L 196.5 123 L 195.5 120 Z " /><path fill="rgb(145,195,208)" stroke="rgb(145,195,208)" stroke-width="1" opacity="1" d="M 205.5 123 L 210 123.5 L 205.5 124 L 205.5 123 Z " /><path fill="rgb(145,195,208)" stroke="rgb(145,195,208)" stroke-width="1" opacity="1" d="M 213.5 124 L 217 124.5 L 213.5 125 L 213.5 124 Z " /><path fill="rgb(145,195,208)" stroke="rgb(145,195,208)" stroke-width="1" opacity="1" d="M 238.5 124 L 239 126.5 L 235.5 128 L 235.5 127 Q 239.5 128.1 238.5 124 Z " /><path fill="rgb(145,195,208)" stroke="rgb(145,195,208)" stroke-width="1" opacity="1" d="M 220.5 125 L 225 125.5 L 220.5 126 L 220.5 125 Z " /><path fill="rgb(145,195,208)" stroke="rgb(145,195,208)" stroke-width="1" opacity="1" d="M 228.5 126 L 232 126.5 L 228.5 127 L 228.5 126 Z " /><path fill="rgb(145,195,208)" stroke="rgb(145,195,208)" stroke-width="1" opacity="1" d="M 243.5 129 L 245 131.5 L 242 132 L 243.5 129 Z " /><path fill="rgb(145,195,208)" stroke="rgb(145,195,208)" stroke-width="1" opacity="1" d="M 258.5 131 L 312.5 138 L 319.5 140 L 325.5 140 Q 326.8 142.3 331.5 141 L 335 143 L 333 150.5 L 334 152.5 L 332 155.5 L 333 157.5 Q 331.3 160.8 324.5 159 L 323.5 158 L 278.5 153 L 272.5 151 L 257.5 150 L 254 148.5 L 256 144.5 L 257 132.5 L 258.5 131 Z " /><path fill="rgb(145,195,208)" stroke="rgb(145,195,208)" stroke-width="1" opacity="1" d="M 337.5 132 L 338 137.5 L 337 137.5 L 337.5 132 Z " /><path fill="rgb(145,195,208)" stroke="rgb(145,195,208)" stroke-width="1" opacity="1" d="M 351.5 134 L 352 142.5 L 351 142.5 L 351.5 134 Z " /><path fill="rgb(145,195,208)" stroke="rgb(145,195,208)" stroke-width="1" opacity="1" d="M 240.5 138 L 245 146 L 248 147.5 L 241.5 148 L 237 147 L 237 142 Q 241.7 143.6 240.5 138 Z " /><path fill="rgb(145,195,208)" stroke="rgb(145,195,208)" stroke-width="1" opacity="1" d="M 196 143 L 235 148 Q 232.9 154.4 234 165.5 L 232.5 167 L 214 165 L 213 179.5 L 210.5 184 L 196.5 183 L 195 181.5 L 195 151.5 L 196 150.5 L 196 143 Z " /><path fill="rgb(145,195,208)" stroke="rgb(145,195,208)" stroke-width="1" opacity="1" d="M 355.5 145 L 356 147.5 L 355 147.5 L 355.5 145 Z " /><path fill="rgb(145,195,208)" stroke="rgb(145,195,208)" stroke-width="1" opacity="1" d="M 354.5 152 L 355 155.5 L 354 155.5 L 354.5 152 Z " /><path fill="rgb(145,195,208)" stroke="rgb(145,195,208)" stroke-width="1" opacity="1" d="M 353.5 160 L 354 162.5 L 353 162.5 L 353.5 160 Z " /><path fill="rgb(145,195,208)" stroke="rgb(145,195,208)" stroke-width="1" opacity="1" d="M 334.5 161 L 343.5 162 L 345 163.5 L 345 183.5 L 343.5 185 Q 338.8 186.2 337.5 184 L 318.5 184 L 317 185.5 L 317 257 L 307 256 L 307 177.5 L 310.5 177 L 311.5 178 L 331 180 L 332 170 L 334 169.5 Q 331.5 168 333 162.5 L 334.5 161 Z M 337 162 L 337 168 L 339 168 L 339 162 L 337 162 Z M 338 171 Q 335 176 339 175 L 338 171 Z M 337 176 Q 336 179 339 178 Q 340 175 337 176 Z M 314 206 L 313 223 L 314 223 L 314 206 Z " /><path fill="rgb(145,195,208)" stroke="rgb(145,195,208)" stroke-width="1" opacity="1" d="M 351.5 163 L 352 189.5 L 350.5 191 L 326.5 191 L 326.5 190 L 349.5 190 L 351 188.5 L 351.5 163 Z " /><path fill="rgb(145,195,208)" stroke="rgb(145,195,208)" stroke-width="1" opacity="1" d="M 257.5 170 L 261 170.5 L 257.5 171 L 257.5 170 Z " /><path fill="rgb(145,195,208)" stroke="rgb(145,195,208)" stroke-width="1" opacity="1" d="M 264.5 171 L 280.5 174 L 286.5 174 L 293 176.5 L 293 195.5 L 290.5 198 L 276.5 197 L 275 198.5 L 275 207.5 L 274 208.5 L 275 210.5 L 272.5 212 L 273 210.5 L 274 188.5 Q 272.5 185.5 271 188.5 L 271 210.5 L 267 211 L 269 205.5 L 270 191 L 268 190.5 L 268 172.5 L 264.5 172 L 264.5 171 Z M 270 173 L 270 178 L 270 180 L 271 183 Q 273 186 274 183 L 274 173 L 270 173 Z M 270 184 L 270 187 L 275 186 L 270 184 Z " /><path fill="rgb(145,195,208)" stroke="rgb(145,195,208)" stroke-width="1" opacity="1" d="M 252.5 172 L 253 175.5 L 252 175.5 L 252.5 172 Z " /><path fill="rgb(145,195,208)" stroke="rgb(145,195,208)" stroke-width="1" opacity="1" d="M 251.5 179 L 252 182.5 L 251 182.5 L 251.5 179 Z " /><path fill="rgb(145,195,208)" stroke="rgb(145,195,208)" stroke-width="1" opacity="1" d="M 140 185 L 142 185.5 L 142 263.5 L 143 265.5 L 142 266.5 L 142 327 L 116 327 L 116 362.5 L 115 363.5 L 115 382.5 L 116.5 384 L 124 384.5 L 122.5 386 L 114.5 386 L 111.5 389 L 110.5 361 L 109 364.5 Q 111.5 366 110 371.5 L 109 372.5 L 109 388.5 L 110.5 391 L 108 388.5 L 108 371.5 Q 110.3 370.3 109 365.5 L 108 361.5 L 109 360.5 L 109 332.5 Q 106.5 331 108 325.5 L 108 323.5 L 110.5 320 L 135.5 320 L 136.5 321 L 137 319.5 L 136 318.5 L 136 197.5 Q 138.3 196.3 137 191.5 L 136 190.5 L 140 186.5 L 140 185 Z M 141 187 L 139 190 L 139 276 L 140 277 L 139 312 L 139 314 L 139 324 L 114 324 L 112 327 L 111 330 L 111 359 L 113 360 L 114 360 L 114 328 L 116 326 L 141 326 L 141 187 Z M 112 321 L 112 322 L 136 322 L 112 321 Z " /><path fill="rgb(145,195,208)" stroke="rgb(145,195,208)" stroke-width="1" opacity="1" d="M 254.5 189 L 258 189.5 L 254.5 190 L 254.5 189 Z " /><path fill="rgb(145,195,208)" stroke="rgb(145,195,208)" stroke-width="1" opacity="1" d="M 112.5 190 L 116 190.5 L 112.5 191 L 112.5 190 Z " /><path fill="rgb(145,195,208)" stroke="rgb(145,195,208)" stroke-width="1" opacity="1" d="M 262.5 190 L 265 190.5 L 262.5 191 L 262.5 190 Z " /><path fill="rgb(145,195,208)" stroke="rgb(145,195,208)" stroke-width="1" opacity="1" d="M 323.5 191 L 324 192.5 L 323 193.5 L 323 202.5 L 324 203.5 L 324 212.5 L 323 213.5 L 323 252.5 L 323 254.5 L 323 276.5 L 324 277.5 L 322 276.5 L 322 193.5 L 323.5 191 Z " /><path fill="rgb(145,195,208)" stroke="rgb(145,195,208)" stroke-width="1" opacity="1" d="M 208 203 L 213 203.5 L 209 204 L 208.5 207 L 208 203 Z " /><path fill="rgb(145,195,208)" stroke="rgb(145,195,208)" stroke-width="1" opacity="1" d="M 214.5 204 L 220 204.5 L 214.5 205 L 214.5 204 Z " /><path fill="rgb(145,195,208)" stroke="rgb(145,195,208)" stroke-width="1" opacity="1" d="M 222.5 205 L 228 205 L 228 212.5 L 227 212.5 L 227 206 L 222.5 206 L 222.5 205 Z " /><path fill="rgb(145,195,208)" stroke="rgb(145,195,208)" stroke-width="1" opacity="1" d="M 207.5 210 L 208 214.5 L 207 214.5 L 207.5 210 Z " /><path fill="rgb(145,195,208)" stroke="rgb(145,195,208)" stroke-width="1" opacity="1" d="M 226.5 214 L 227 218.5 L 225.5 220 L 216 220.5 L 224.5 221 L 226 222.5 L 225.5 226 L 189 226 Q 187.9 223.3 190.5 224 L 194.5 221 L 212 220.5 Q 207.4 221.1 206 218.5 L 207.5 219 L 212.5 220 L 213.5 219 L 226 219 L 226.5 214 Z M 196 223 L 192 225 L 225 225 L 225 223 L 196 223 Z " /><path fill="rgb(145,195,208)" stroke="rgb(145,195,208)" stroke-width="1" opacity="1" d="M 247.5 218 L 249 220.5 L 249 224.5 Q 250.5 228.9 247.5 228 Q 244.8 226.8 246 221.5 L 247.5 218 Z " /><path fill="rgb(145,195,208)" stroke="rgb(145,195,208)" stroke-width="1" opacity="1" d="M 215.5 238 L 234.5 238 L 236 239.5 L 236 253.5 L 233.5 254 L 231.5 255 L 230.5 254 L 214 254 L 214 239.5 L 215.5 238 Z " /><path fill="rgb(145,195,208)" stroke="rgb(145,195,208)" stroke-width="1" opacity="1" d="M 280 269 L 284.5 270 L 285.5 269 L 288.5 272 L 290 272.5 L 286.5 273 L 280 272 L 280 269 Z " /><path fill="rgb(145,195,208)" stroke="rgb(145,195,208)" stroke-width="1" opacity="1" d="M 294.5 273 L 297 273.5 L 294.5 274 L 294.5 273 Z " /><path fill="rgb(145,195,208)" stroke="rgb(145,195,208)" stroke-width="1" opacity="1" d="M 325.5 278 L 329 278.5 L 325.5 279 L 325.5 278 Z " /><path fill="rgb(145,195,208)" stroke="rgb(145,195,208)" stroke-width="1" opacity="1" d="M 332.5 279 Q 337 278 338 280.5 L 337.5 283 L 337 280 L 332.5 280 L 332.5 279 Z " /><path fill="rgb(145,195,208)" stroke="rgb(145,195,208)" stroke-width="1" opacity="1" d="M 189.5 282 L 258 282.5 L 189.5 283 L 189.5 282 Z " /><path fill="rgb(145,195,208)" stroke="rgb(145,195,208)" stroke-width="1" opacity="1" d="M 270.5 282 L 273 282.5 L 270.5 283 L 270.5 282 Z " /><path fill="rgb(145,195,208)" stroke="rgb(145,195,208)" stroke-width="1" opacity="1" d="M 273.5 285 L 275 287.5 L 275 342.5 L 274 347.5 L 275 350.5 L 274 351.5 L 274 382.5 L 275.5 384 L 317.5 384 L 322.5 385 L 323.5 384 L 336.5 384 L 339.5 385 L 345.5 383 L 346 384.5 L 344.5 386 L 314.5 386 L 312.5 386 L 309.5 385 L 308.5 386 L 273.5 386 L 270 388.5 Q 269.3 390.8 271.5 390 L 271.5 391 Q 266.7 392.7 268 388.5 L 267 386.5 L 268 385.5 L 268 290.5 L 267.5 289 L 268.5 290 L 273.5 285 Z M 272 337 L 271 340 L 272 340 L 272 337 Z M 270 361 L 269 386 L 270 386 L 270 361 Z " /><path fill="rgb(145,195,208)" stroke="rgb(145,195,208)" stroke-width="1" opacity="1" d="M 336.5 285 L 337 289.5 L 336 289.5 L 336.5 285 Z " /><path fill="rgb(145,195,208)" stroke="rgb(145,195,208)" stroke-width="1" opacity="1" d="M 196.5 289 L 212 289.5 L 196 290 L 196 389.5 L 193.5 392 L 124 391.5 L 193.5 391 L 195 389.5 L 195 290.5 L 196.5 289 Z " /><path fill="rgb(145,195,208)" stroke="rgb(145,195,208)" stroke-width="1" opacity="1" d="M 335.5 293 L 336 296.5 L 335 296.5 L 335.5 293 Z " /><path fill="rgb(145,195,208)" stroke="rgb(145,195,208)" stroke-width="1" opacity="1" d="M 335.5 299 L 338 299.5 L 335.5 300 L 335.5 299 Z " /><path fill="rgb(145,195,208)" stroke="rgb(145,195,208)" stroke-width="1" opacity="1" d="M 341.5 300 L 345 300.5 L 341.5 301 L 341.5 300 Z " /><path fill="rgb(145,195,208)" stroke="rgb(145,195,208)" stroke-width="1" opacity="1" d="M 348.5 301 L 353 301.5 L 348.5 302 L 348.5 301 Z " /><path fill="rgb(145,195,208)" stroke="rgb(145,195,208)" stroke-width="1" opacity="1" d="M 353.5 307 L 354 310.5 L 353 310.5 L 353.5 307 Z " /><path fill="rgb(145,195,208)" stroke="rgb(145,195,208)" stroke-width="1" opacity="1" d="M 352.5 315 L 353 318.5 L 352 318.5 L 352.5 315 Z " /><path fill="rgb(145,195,208)" stroke="rgb(145,195,208)" stroke-width="1" opacity="1" d="M 357.5 322 L 361 322.5 L 357.5 323 L 357.5 322 Z " /><path fill="rgb(145,195,208)" stroke="rgb(145,195,208)" stroke-width="1" opacity="1" d="M 365.5 323 L 369 323.5 L 365.5 324 L 365.5 323 Z " /><path fill="rgb(145,195,208)" stroke="rgb(145,195,208)" stroke-width="1" opacity="1" d="M 370.5 328 L 371 332.5 L 370 332.5 L 370.5 328 Z " /><path fill="rgb(145,195,208)" stroke="rgb(145,195,208)" stroke-width="1" opacity="1" d="M 369.5 335 L 370 339.5 L 369 339.5 L 369.5 335 Z " /><path fill="rgb(145,195,208)" stroke="rgb(145,195,208)" stroke-width="1" opacity="1" d="M 349 342 L 368 344.5 Q 364.5 346 367 347.5 L 366 360.5 L 365 363 Q 361.2 361.2 353.5 362 L 347 360 L 349 342 Z M 358 345 L 356 347 Q 355 349 358 348 L 358 350 L 360 350 L 361 350 Q 359 357 364 355 Q 365 349 362 347 Q 363 343 358 345 Z " /><path fill="rgb(145,195,208)" stroke="rgb(145,195,208)" stroke-width="1" opacity="1" d="M 372.5 344 L 377 344.5 L 372.5 345 L 372.5 344 Z " /><path fill="rgb(145,195,208)" stroke="rgb(145,195,208)" stroke-width="1" opacity="1" d="M 379.5 345 L 384 345.5 L 379.5 346 L 379.5 345 Z " /><path fill="rgb(145,195,208)" stroke="rgb(145,195,208)" stroke-width="1" opacity="1" d="M 387.5 349 L 388 353.5 L 387 353.5 L 387.5 349 Z " /><path fill="rgb(145,195,208)" stroke="rgb(145,195,208)" stroke-width="1" opacity="1" d="M 386.5 356 L 387 360.5 L 386 360.5 L 386.5 356 Z " /><path fill="rgb(145,195,208)" stroke="rgb(145,195,208)" stroke-width="1" opacity="1" d="M 385.5 363 L 386 368.5 L 385 368.5 L 385.5 363 Z " /><path fill="rgb(145,195,208)" stroke="rgb(145,195,208)" stroke-width="1" opacity="1" d="M 384.5 371 L 385 375.5 L 384 375.5 L 384.5 371 Z " /><path fill="rgb(145,195,208)" stroke="rgb(145,195,208)" stroke-width="1" opacity="1" d="M 383.5 377 L 384 382.5 L 383 382.5 L 383.5 377 Z " /><path fill="rgb(145,195,208)" stroke="rgb(145,195,208)" stroke-width="1" opacity="1" d="M 353.5 381 L 364 382.5 L 358.5 383 L 353 382 L 353 390.5 L 351.5 391 L 350.5 392 L 274.5 392 L 273.5 390 L 274.5 391 L 349.5 391 L 352 390 L 352 382.5 L 353.5 381 Z " /><path fill="rgb(145,195,208)" stroke="rgb(145,195,208)" stroke-width="1" opacity="1" d="M 365.5 383 L 371 383.5 L 365.5 384 L 365.5 383 Z " /><path fill="rgb(145,195,208)" stroke="rgb(145,195,208)" stroke-width="1" opacity="1" d="M 125.5 384 L 137 384.5 Q 136 387 131.5 386 Q 130.2 383.8 125.5 385 L 125.5 384 Z " /><path fill="rgb(145,195,208)" stroke="rgb(145,195,208)" stroke-width="1" opacity="1" d="M 187.5 384 L 188 386 L 178 385.5 L 186.5 385 L 187.5 384 Z " /><path fill="rgb(145,195,208)" stroke="rgb(145,195,208)" stroke-width="1" opacity="1" d="M 372.5 384 L 378 384.5 L 372.5 385 L 372.5 384 Z " /><path fill="rgb(145,195,208)" stroke="rgb(145,195,208)" stroke-width="1" opacity="1" d="M 382.5 384 L 383 386 L 380 385.5 L 382.5 384 Z " /><path fill="rgb(145,195,208)" stroke="rgb(145,195,208)" stroke-width="1" opacity="1" d="M 141.5 385 L 154 385.5 L 141.5 386 L 141.5 385 Z " /><path fill="rgb(145,195,208)" stroke="rgb(145,195,208)" stroke-width="1" opacity="1" d="M 112.5 391 L 115 391.5 L 112.5 392 L 112.5 391 Z " /><path fill="rgb(88,36,126)" stroke="rgb(88,36,126)" stroke-width="1" opacity="1" d="M 241 109 L 338 121 L 336 141 L 347 142 L 347 127.5 L 349 127 L 349 141.5 L 350.5 143 L 355 144 L 354 156.5 L 351.5 163 L 349 163.5 L 349 182.5 L 350 186.5 L 345.5 189 L 323.5 189 Q 322.3 186.8 321 189.5 L 321 242.5 L 320 243.5 Q 322.5 245 321 250.5 L 320 252.5 L 321 255.5 L 321 257.5 L 320 265.5 L 321 266.5 L 321 278 L 329.5 280 L 335.5 280 L 337 281.5 L 334 300 L 345.5 302 L 352.5 302 L 354 303.5 L 351 320.5 L 353.5 323 L 360.5 323 L 370 325 L 368 344 L 387 347 L 383 382.5 L 382 385 L 357.5 381 L 351.5 381 Q 348.3 382.9 350 389 L 273 388.5 L 274.5 387 L 346.5 387 L 348 385.5 Q 349 381 346.5 380 L 342.5 382 L 320.5 382 L 319 380.5 L 319 362.5 L 316.5 360 L 307.5 360 L 307 359.5 L 307 320.5 L 307 318.5 L 305.5 315 L 294 314 L 296 294 L 277 291 L 279 272 L 268 271 L 267 277.5 Q 269.3 278.8 266.5 280 L 255.5 280 L 254 278.5 L 254 249.5 L 252.5 249 L 243 247 L 245 228.5 L 243.5 227 L 226 225 L 228 213.5 L 228 205 L 208 203 L 206 219 L 195.5 219 L 194 217.5 L 194 202.5 L 196 199.5 L 195 198.5 L 195 187.5 L 196 183 L 210.5 184 L 213 179.5 L 214 165 L 232.5 167 L 234 165.5 L 235 149.5 L 236 148.5 L 232.5 147 L 225.5 147 L 224.5 146 L 217.5 146 L 216.5 145 L 196 143 L 195.5 151 L 195 126.5 L 196 123 L 239 128 L 241 109 Z M 239 129 L 237 147 L 239 148 Q 244 147 246 149 L 270 151 L 277 153 L 333 160 L 334 158 L 335 141 L 311 138 L 310 137 L 296 136 L 295 135 L 281 134 L 280 133 L 272 133 L 271 132 L 239 129 Z M 333 160 L 331 179 L 330 180 L 329 179 L 308 177 L 307 176 L 299 176 L 292 174 L 254 169 L 252 171 L 250 189 L 252 190 L 266 191 L 269 192 L 267 211 L 270 212 L 285 213 L 286 215 L 286 222 L 284 233 L 303 236 L 301 255 L 303 256 L 315 257 L 316 258 L 319 257 L 319 185 L 346 185 L 347 184 L 347 162 L 333 160 Z M 248 218 L 246 222 Q 245 227 248 228 Q 250 229 249 225 L 249 221 L 248 218 Z M 280 269 L 280 272 L 287 273 L 290 273 L 289 272 L 286 269 L 285 270 L 280 269 Z M 295 273 L 295 274 L 297 274 L 295 273 Z M 349 342 L 347 360 L 354 362 Q 361 361 365 363 L 366 361 L 367 348 Q 365 346 368 345 L 349 342 Z M 344 360 L 345 376 L 347 362 L 344 360 Z " /><path fill="rgb(88,36,126)" stroke="rgb(88,36,126)" stroke-width="1" opacity="1" d="M 190 125 L 193 125.5 L 193 219.5 L 190 221.5 L 190 125 Z " /><path fill="rgb(88,36,126)" stroke="rgb(88,36,126)" stroke-width="1" opacity="1" d="M 116.5 185 L 137.5 185 L 138 186.5 L 136.5 188 L 115.5 188 L 114.5 186 L 116.5 185 Z " /><path fill="rgb(88,36,126)" stroke="rgb(88,36,126)" stroke-width="1" opacity="1" d="M 190 284 L 270.5 284 L 271 285.5 Q 268.8 289.3 261.5 288 L 259.5 288 L 199.5 288 L 198.5 287 L 196.5 288 L 194.5 287 L 193 288.5 L 193 389 L 115.5 389 L 115 387 L 188.5 387 L 190 385.5 L 190 284 Z " /><path fill="rgb(88,36,126)" stroke="rgb(88,36,126)" stroke-width="1" opacity="1" d="M 176 288 L 185.5 288 L 186 288.5 L 186 380.5 L 184.5 382 L 139 382 L 139 363.5 L 140.5 362 L 159.5 362 L 162 359.5 L 162 354 L 173.5 354 L 176 351.5 L 176 288 Z " /><path fill="rgb(88,36,126)" stroke="rgb(88,36,126)" stroke-width="1" opacity="1" d="M 357.5 345 Q 362.9 343.1 362 346.5 Q 365.2 349 364 355 Q 358.8 356.8 361 349.5 L 359.5 350 L 358 350 L 358 348 Q 355.3 349.1 356 346.5 L 357.5 345 Z " /><path fill="rgb(229,241,240)" stroke="rgb(229,241,240)" stroke-width="1" opacity="1" d="M 246.5 108 L 249 108.5 L 246.5 109 L 246.5 108 Z " /><path fill="rgb(229,241,240)" stroke="rgb(229,241,240)" stroke-width="1" opacity="1" d="M 254.5 109 L 257 109.5 L 254.5 110 L 254.5 109 Z " /><path fill="rgb(229,241,240)" stroke="rgb(229,241,240)" stroke-width="1" opacity="1" d="M 261.5 110 L 264 110.5 L 261.5 111 L 261.5 110 Z " /><path fill="rgb(229,241,240)" stroke="rgb(229,241,240)" stroke-width="1" opacity="1" d="M 269.5 111 L 272 111.5 L 269.5 112 L 269.5 111 Z " /><path fill="rgb(229,241,240)" stroke="rgb(229,241,240)" stroke-width="1" opacity="1" d="M 276.5 112 L 279 112.5 L 276.5 113 L 276.5 112 Z " /><path fill="rgb(229,241,240)" stroke="rgb(229,241,240)" stroke-width="1" opacity="1" d="M 284.5 113 L 287 113.5 L 284.5 114 L 284.5 113 Z " /><path fill="rgb(229,241,240)" stroke="rgb(229,241,240)" stroke-width="1" opacity="1" d="M 110.5 114 L 193.5 114 L 196 115.5 L 194.5 116 L 193.5 115 L 110.5 115 L 108.5 118 L 108 116.5 L 110.5 114 Z " /><path fill="rgb(229,241,240)" stroke="rgb(229,241,240)" stroke-width="1" opacity="1" d="M 292.5 114 L 295 114.5 L 292.5 115 L 292.5 114 Z " /><path fill="rgb(229,241,240)" stroke="rgb(229,241,240)" stroke-width="1" opacity="1" d="M 312.5 114 L 348.5 114 L 352 116.5 L 351.5 120 L 351 116 L 348.5 115 L 312.5 115 L 312.5 114 Z " /><path fill="rgb(229,241,240)" stroke="rgb(229,241,240)" stroke-width="1" opacity="1" d="M 196.5 117 L 198 121.5 L 196 122 L 196.5 117 Z " /><path fill="rgb(229,241,240)" stroke="rgb(229,241,240)" stroke-width="1" opacity="1" d="M 112.5 119 L 189.5 119 L 190 122 L 115.5 122 L 115 122.5 L 115 144.5 L 111 146 L 111 120.5 L 112.5 119 Z " /><path fill="rgb(229,241,240)" stroke="rgb(229,241,240)" stroke-width="1" opacity="1" d="M 332.5 119 L 346.5 119 L 347 120.5 Q 345.5 123.5 339.5 122 Q 338.2 118.8 332.5 120 L 332.5 119 Z " /><path fill="rgb(229,241,240)" stroke="rgb(229,241,240)" stroke-width="1" opacity="1" d="M 238.5 121 L 239 123.5 L 238 123.5 L 238.5 121 Z " /><path fill="rgb(229,241,240)" stroke="rgb(229,241,240)" stroke-width="1" opacity="1" d="M 202.5 122 L 205 122.5 L 202.5 123 L 202.5 122 Z " /><path fill="rgb(229,241,240)" stroke="rgb(229,241,240)" stroke-width="1" opacity="1" d="M 351.5 122 L 352 133.5 L 351 133.5 L 351.5 122 Z " /><path fill="rgb(229,241,240)" stroke="rgb(229,241,240)" stroke-width="1" opacity="1" d="M 210.5 123 L 213 123.5 L 210.5 124 L 210.5 123 Z " /><path fill="rgb(229,241,240)" stroke="rgb(229,241,240)" stroke-width="1" opacity="1" d="M 217.5 124 L 220 124.5 L 217.5 125 L 217.5 124 Z " /><path fill="rgb(229,241,240)" stroke="rgb(229,241,240)" stroke-width="1" opacity="1" d="M 225.5 125 L 228 125.5 L 225.5 126 L 225.5 125 Z " /><path fill="rgb(229,241,240)" stroke="rgb(229,241,240)" stroke-width="1" opacity="1" d="M 232.5 126 L 235 126.5 L 232.5 127 L 232.5 126 Z " /><path fill="rgb(229,241,240)" stroke="rgb(229,241,240)" stroke-width="1" opacity="1" d="M 338 130 L 340 130.5 L 340 140 Q 336.3 141.5 337 138.5 L 338 137.5 L 338 130 Z " /><path fill="rgb(229,241,240)" stroke="rgb(229,241,240)" stroke-width="1" opacity="1" d="M 352.5 142 L 355 142.5 L 352.5 143 L 352.5 142 Z " /><path fill="rgb(229,241,240)" stroke="rgb(229,241,240)" stroke-width="1" opacity="1" d="M 108.5 144 L 109 168.5 L 108 168.5 L 108.5 144 Z " /><path fill="rgb(229,241,240)" stroke="rgb(229,241,240)" stroke-width="1" opacity="1" d="M 355.5 148 L 356 150.5 L 355 150.5 L 355.5 148 Z " /><path fill="rgb(229,241,240)" stroke="rgb(229,241,240)" stroke-width="1" opacity="1" d="M 111 150 L 115 150.5 L 115 183.5 L 112.5 185 L 111 183.5 L 111 150 Z " /><path fill="rgb(229,241,240)" stroke="rgb(229,241,240)" stroke-width="1" opacity="1" d="M 337 162 L 339 162 L 339 168 L 337 168 L 337 162 Z " /><path fill="rgb(229,241,240)" stroke="rgb(229,241,240)" stroke-width="1" opacity="1" d="M 253.5 170 L 257 170.5 L 253.5 171 L 253.5 170 Z " /><path fill="rgb(229,241,240)" stroke="rgb(229,241,240)" stroke-width="1" opacity="1" d="M 261.5 171 L 264 171.5 L 261.5 172 L 261.5 171 Z " /><path fill="rgb(229,241,240)" stroke="rgb(229,241,240)" stroke-width="1" opacity="1" d="M 337.5 171 L 339 175 Q 335.2 176.2 337.5 171 Z " /><path fill="rgb(229,241,240)" stroke="rgb(229,241,240)" stroke-width="1" opacity="1" d="M 270 173 L 274 173 L 274 182.5 Q 272.5 185.5 271 182.5 L 270 179.5 L 270 177.5 L 270 173 Z " /><path fill="rgb(229,241,240)" stroke="rgb(229,241,240)" stroke-width="1" opacity="1" d="M 267.5 175 L 268 191 L 265 190.5 L 267 190 L 267.5 175 Z " /><path fill="rgb(229,241,240)" stroke="rgb(229,241,240)" stroke-width="1" opacity="1" d="M 337 176 Q 340 175 339 178 Q 336 179 337 176 Z " /><path fill="rgb(229,241,240)" stroke="rgb(229,241,240)" stroke-width="1" opacity="1" d="M 251.5 183 L 252 185.5 L 251 185.5 L 251.5 183 Z " /><path fill="rgb(229,241,240)" stroke="rgb(229,241,240)" stroke-width="1" opacity="1" d="M 140.5 187 L 141 326 L 115.5 326 L 114 327.5 L 114 359.5 L 112.5 360 L 111 358.5 L 111 329.5 L 112 326.5 L 113.5 324 L 139 324 L 139 313.5 L 139 311.5 L 140 276.5 L 139 275.5 L 139 189.5 L 140.5 187 Z " /><path fill="rgb(229,241,240)" stroke="rgb(229,241,240)" stroke-width="1" opacity="1" d="M 272.5 187 L 274 188.5 L 274 197.5 L 273 198.5 L 273 211 L 271 210.5 L 271 188.5 L 272.5 187 Z " /><path fill="rgb(229,241,240)" stroke="rgb(229,241,240)" stroke-width="1" opacity="1" d="M 258.5 189 L 261 189.5 L 258.5 190 L 258.5 189 Z " /><path fill="rgb(229,241,240)" stroke="rgb(229,241,240)" stroke-width="1" opacity="1" d="M 110.5 190 L 115.5 191 L 116.5 190 L 135.5 190 Q 138.3 191.3 137 196.5 L 136 196.5 Q 136.6 191.1 135.5 191 L 116.5 191 L 112.5 192 L 110.5 190 Z " /><path fill="rgb(229,241,240)" stroke="rgb(229,241,240)" stroke-width="1" opacity="1" d="M 351.5 190 L 350.5 192 L 324 191.5 L 350.5 191 L 351.5 190 Z " /><path fill="rgb(229,241,240)" stroke="rgb(229,241,240)" stroke-width="1" opacity="1" d="M 323.5 193 L 324 202.5 L 323 202.5 L 323.5 193 Z " /><path fill="rgb(229,241,240)" stroke="rgb(229,241,240)" stroke-width="1" opacity="1" d="M 211.5 204 L 214 204.5 L 211.5 205 L 211.5 204 Z " /><path fill="rgb(229,241,240)" stroke="rgb(229,241,240)" stroke-width="1" opacity="1" d="M 219.5 205 L 222 205.5 L 219.5 206 L 219.5 205 Z " /><path fill="rgb(229,241,240)" stroke="rgb(229,241,240)" stroke-width="1" opacity="1" d="M 313.5 206 L 314 222.5 L 313 222.5 L 313.5 206 Z " /><path fill="rgb(229,241,240)" stroke="rgb(229,241,240)" stroke-width="1" opacity="1" d="M 208.5 207 L 209 209.5 L 208 209.5 L 208.5 207 Z " /><path fill="rgb(229,241,240)" stroke="rgb(229,241,240)" stroke-width="1" opacity="1" d="M 226.5 211 L 227 213.5 L 226 213.5 L 226.5 211 Z " /><path fill="rgb(229,241,240)" stroke="rgb(229,241,240)" stroke-width="1" opacity="1" d="M 323.5 213 L 324 252.5 L 323 252.5 L 323.5 213 Z " /><path fill="rgb(229,241,240)" stroke="rgb(229,241,240)" stroke-width="1" opacity="1" d="M 207.5 215 L 208 218 Q 211.8 217 213 219.5 L 211.5 219 Q 204.5 221 207.5 215 Z " /><path fill="rgb(229,241,240)" stroke="rgb(229,241,240)" stroke-width="1" opacity="1" d="M 217.5 218 L 220 218.5 L 217.5 219 L 217.5 218 Z " /><path fill="rgb(229,241,240)" stroke="rgb(229,241,240)" stroke-width="1" opacity="1" d="M 221.5 218 L 226 218.5 L 221.5 219 L 221.5 218 Z " /><path fill="rgb(229,241,240)" stroke="rgb(229,241,240)" stroke-width="1" opacity="1" d="M 195.5 223 L 224.5 223 L 225 225 L 192 224.5 L 195.5 223 Z " /><path fill="rgb(229,241,240)" stroke="rgb(229,241,240)" stroke-width="1" opacity="1" d="M 323.5 254 L 324 276.5 L 325 277.5 L 323 276.5 L 323.5 254 Z " /><path fill="rgb(229,241,240)" stroke="rgb(229,241,240)" stroke-width="1" opacity="1" d="M 329.5 278 L 332 278.5 L 329.5 279 L 329.5 278 Z " /><path fill="rgb(229,241,240)" stroke="rgb(229,241,240)" stroke-width="1" opacity="1" d="M 212.5 289 L 266.5 289 L 268 290.5 L 267.5 293 L 267 290 L 212.5 290 L 212.5 289 Z " /><path fill="rgb(229,241,240)" stroke="rgb(229,241,240)" stroke-width="1" opacity="1" d="M 336.5 290 L 337 292.5 L 336 292.5 L 336.5 290 Z " /><path fill="rgb(229,241,240)" stroke="rgb(229,241,240)" stroke-width="1" opacity="1" d="M 345.5 300 L 348 300.5 L 345.5 301 L 345.5 300 Z " /><path fill="rgb(229,241,240)" stroke="rgb(229,241,240)" stroke-width="1" opacity="1" d="M 353.5 301 L 354.5 303 L 353.5 301 Z " /><path fill="rgb(229,241,240)" stroke="rgb(229,241,240)" stroke-width="1" opacity="1" d="M 354.5 304 L 355 306.5 L 354 306.5 L 354.5 304 Z " /><path fill="rgb(229,241,240)" stroke="rgb(229,241,240)" stroke-width="1" opacity="1" d="M 353.5 311 L 354 313.5 L 353 313.5 L 353.5 311 Z " /><path fill="rgb(229,241,240)" stroke="rgb(229,241,240)" stroke-width="1" opacity="1" d="M 267.5 319 L 268 321.5 L 267 321.5 L 267.5 319 Z " /><path fill="rgb(229,241,240)" stroke="rgb(229,241,240)" stroke-width="1" opacity="1" d="M 109.5 320 L 108.5 322 L 109.5 320 Z " /><path fill="rgb(229,241,240)" stroke="rgb(229,241,240)" stroke-width="1" opacity="1" d="M 361.5 322 L 364 322.5 L 361.5 323 L 361.5 322 Z " /><path fill="rgb(229,241,240)" stroke="rgb(229,241,240)" stroke-width="1" opacity="1" d="M 369.5 323 L 372 324.5 L 371.5 328 L 371 324 L 369.5 323 Z " /><path fill="rgb(229,241,240)" stroke="rgb(229,241,240)" stroke-width="1" opacity="1" d="M 267.5 325 L 268 385.5 L 267 385.5 L 267.5 325 Z " /><path fill="rgb(229,241,240)" stroke="rgb(229,241,240)" stroke-width="1" opacity="1" d="M 108.5 332 L 109 360.5 L 108 360.5 L 108.5 332 Z " /><path fill="rgb(229,241,240)" stroke="rgb(229,241,240)" stroke-width="1" opacity="1" d="M 370.5 333 L 371 335.5 L 370 335.5 L 370.5 333 Z " /><path fill="rgb(229,241,240)" stroke="rgb(229,241,240)" stroke-width="1" opacity="1" d="M 271.5 337 L 272 339.5 L 271 339.5 L 271.5 337 Z " /><path fill="rgb(229,241,240)" stroke="rgb(229,241,240)" stroke-width="1" opacity="1" d="M 369.5 340 L 370 343 L 372 343.5 L 370.5 344 Q 368 343 369.5 340 Z " /><path fill="rgb(229,241,240)" stroke="rgb(229,241,240)" stroke-width="1" opacity="1" d="M 377.5 344 L 380 344.5 L 377.5 345 L 377.5 344 Z " /><path fill="rgb(229,241,240)" stroke="rgb(229,241,240)" stroke-width="1" opacity="1" d="M 384.5 345 L 387 345.5 L 384.5 346 L 384.5 345 Z " /><path fill="rgb(229,241,240)" stroke="rgb(229,241,240)" stroke-width="1" opacity="1" d="M 388.5 346 L 389 348.5 L 388 348.5 L 388.5 346 Z " /><path fill="rgb(229,241,240)" stroke="rgb(229,241,240)" stroke-width="1" opacity="1" d="M 387.5 354 L 388 356.5 L 387 356.5 L 387.5 354 Z " /><path fill="rgb(229,241,240)" stroke="rgb(229,241,240)" stroke-width="1" opacity="1" d="M 386.5 361 L 387 363.5 L 386 363.5 L 386.5 361 Z " /><path fill="rgb(229,241,240)" stroke="rgb(229,241,240)" stroke-width="1" opacity="1" d="M 108.5 365 L 109 370.5 L 108 370.5 L 108.5 365 Z " /><path fill="rgb(229,241,240)" stroke="rgb(229,241,240)" stroke-width="1" opacity="1" d="M 385.5 369 L 386 371.5 L 385 371.5 L 385.5 369 Z " /><path fill="rgb(229,241,240)" stroke="rgb(229,241,240)" stroke-width="1" opacity="1" d="M 384.5 376 L 385 378.5 L 384 378.5 L 384.5 376 Z " /><path fill="rgb(229,241,240)" stroke="rgb(229,241,240)" stroke-width="1" opacity="1" d="M 354.5 382 L 358 382.5 L 354.5 383 L 354.5 382 Z " /><path fill="rgb(229,241,240)" stroke="rgb(229,241,240)" stroke-width="1" opacity="1" d="M 361.5 383 L 365 383.5 L 361.5 384 L 361.5 383 Z " /><path fill="rgb(229,241,240)" stroke="rgb(229,241,240)" stroke-width="1" opacity="1" d="M 383.5 383 L 384 385.5 L 383 385.5 L 383.5 383 Z " /><path fill="rgb(229,241,240)" stroke="rgb(229,241,240)" stroke-width="1" opacity="1" d="M 369.5 384 L 372 384.5 L 369.5 385 L 369.5 384 Z " /><path fill="rgb(229,241,240)" stroke="rgb(229,241,240)" stroke-width="1" opacity="1" d="M 376.5 385 L 380 385.5 L 376.5 386 L 376.5 385 Z " /><path fill="rgb(229,241,240)" stroke="rgb(229,241,240)" stroke-width="1" opacity="1" d="M 108.5 389 L 112 391.5 L 110.5 392 L 108.5 389 Z " /><path fill="rgb(229,241,240)" stroke="rgb(229,241,240)" stroke-width="1" opacity="1" d="M 195.5 390 L 194.5 392 L 195.5 390 Z " /><path fill="rgb(229,241,240)" stroke="rgb(229,241,240)" stroke-width="1" opacity="1" d="M 268.5 391 L 274 391.5 L 268.5 392 L 268.5 391 Z " /><path fill="rgb(229,241,240)" stroke="rgb(229,241,240)" stroke-width="1" opacity="1" d="M 150.5 392 L 153 392.5 L 150.5 393 L 150.5 392 Z " /><path fill="rgb(229,241,240)" stroke="rgb(229,241,240)" stroke-width="1" opacity="1" d="M 162.5 392 L 169 392.5 L 162.5 393 L 162.5 392 Z " /><path fill="rgb(229,241,240)" stroke="rgb(229,241,240)" stroke-width="1" opacity="1" d="M 175.5 392 L 182 392.5 L 175.5 393 L 175.5 392 Z " /><path fill="rgb(254,254,255)" stroke="rgb(254,254,255)" stroke-width="1" opacity="1" d="M 109.5 114 L 108.5 116 L 109.5 114 Z " /><path fill="rgb(254,254,255)" stroke="rgb(254,254,255)" stroke-width="1" opacity="1" d="M 295.5 114 L 308 114.5 L 295.5 115 L 295.5 114 Z " /><path fill="rgb(254,254,255)" stroke="rgb(254,254,255)" stroke-width="1" opacity="1" d="M 349.5 114 L 352 115.5 L 350.5 115 L 349.5 114 Z " /><path fill="rgb(254,254,255)" stroke="rgb(254,254,255)" stroke-width="1" opacity="1" d="M 352.5 118 L 353 125.5 L 352 125.5 L 352.5 118 Z " /><path fill="rgb(254,254,255)" stroke="rgb(254,254,255)" stroke-width="1" opacity="1" d="M 107.5 120 L 108 122.5 L 107 122.5 L 107.5 120 Z " /><path fill="rgb(254,254,255)" stroke="rgb(254,254,255)" stroke-width="1" opacity="1" d="M 107.5 132 L 108 134.5 L 107 134.5 L 107.5 132 Z " /><path fill="rgb(254,254,255)" stroke="rgb(254,254,255)" stroke-width="1" opacity="1" d="M 352.5 133 L 353 141.5 L 352 141.5 L 352.5 133 Z " /><path fill="rgb(254,254,255)" stroke="rgb(254,254,255)" stroke-width="1" opacity="1" d="M 352.5 164 L 353 189.5 L 352 189.5 L 352.5 164 Z " /><path fill="rgb(254,254,255)" stroke="rgb(254,254,255)" stroke-width="1" opacity="1" d="M 107.5 172 L 108 186.5 L 107 186.5 L 107.5 172 Z " /><path fill="rgb(254,254,255)" stroke="rgb(254,254,255)" stroke-width="1" opacity="1" d="M 266 172 Q 269 170.8 268 174.5 L 267 175.5 L 266.5 190 L 266 172 Z " /><path fill="rgb(254,254,255)" stroke="rgb(254,254,255)" stroke-width="1" opacity="1" d="M 109.5 190 L 112 191.5 L 109 192 L 109.5 190 Z " /><path fill="rgb(254,254,255)" stroke="rgb(254,254,255)" stroke-width="1" opacity="1" d="M 116.5 191 L 136 191.5 L 116.5 192 L 116.5 191 Z " /><path fill="rgb(254,254,255)" stroke="rgb(254,254,255)" stroke-width="1" opacity="1" d="M 351.5 191 L 350.5 193 L 324 192.5 L 350.5 192 L 351.5 191 Z " /><path fill="rgb(254,254,255)" stroke="rgb(254,254,255)" stroke-width="1" opacity="1" d="M 135.5 201 L 136 317.5 L 135 320 L 110 319.5 L 134 319 L 135 307.5 L 134 306.5 L 134 292.5 L 135 291.5 L 135.5 201 Z " /><path fill="rgb(254,254,255)" stroke="rgb(254,254,255)" stroke-width="1" opacity="1" d="M 212.5 218 L 217 218.5 L 212.5 219 L 212.5 218 Z " /><path fill="rgb(254,254,255)" stroke="rgb(254,254,255)" stroke-width="1" opacity="1" d="M 197.5 290 L 266.5 290 L 267 292.5 L 268 293.5 L 268 318.5 L 267 321.5 L 268 324.5 L 267 325.5 L 267 389.5 L 268 392 L 353 392.5 L 346.5 394 L 343.5 393 L 338.5 394 L 337.5 393 L 305.5 393 L 300.5 394 L 296.5 393 L 292.5 394 L 291.5 393 L 279.5 393 L 276.5 394 Q 274.7 391.2 268.5 393 L 266 390.5 L 266 291 L 197 291 L 196.5 389 L 196 291.5 L 197.5 290 Z " /><path fill="rgb(254,254,255)" stroke="rgb(254,254,255)" stroke-width="1" opacity="1" d="M 353.5 382 L 354 388.5 L 353 388.5 L 353.5 382 Z " /><path fill="rgb(254,254,255)" stroke="rgb(254,254,255)" stroke-width="1" opacity="1" d="M 108.5 390 L 109.5 392 L 108.5 390 Z " /><path fill="rgb(254,254,255)" stroke="rgb(254,254,255)" stroke-width="1" opacity="1" d="M 195.5 391 L 194.5 393 L 184.5 393 L 183.5 394 L 136.5 394 L 135.5 393 L 121.5 393 L 116.5 394 L 111 392.5 L 149.5 392 L 152.5 393 L 153.5 392 L 161.5 392 Q 163 394.5 168.5 393 Q 169.7 390.8 174.5 392 Q 176 394.5 181.5 393 L 182.5 392 L 194.5 392 L 195.5 391 Z " /><path fill="rgb(50,180,173)" stroke="rgb(50,180,173)" stroke-width="1" opacity="1" d="M 175.5 116 L 193.5 116 L 196 118.5 L 193.5 124 L 192 123.5 L 194 123 L 194 117.5 L 193.5 117 L 175.5 117 L 175.5 116 Z " /><path fill="rgb(50,180,173)" stroke="rgb(50,180,173)" stroke-width="1" opacity="1" d="M 317.5 116 L 348 116.5 L 317.5 117 L 317.5 116 Z " /><path fill="rgb(50,180,173)" stroke="rgb(50,180,173)" stroke-width="1" opacity="1" d="M 346.5 123 L 350 124.5 L 346 126.5 L 346 141.5 L 344.5 142 L 345 140.5 L 345 124.5 L 346.5 123 Z " /><path fill="rgb(50,180,173)" stroke="rgb(50,180,173)" stroke-width="1" opacity="1" d="M 188.5 124 L 189 146.5 L 188 147.5 L 188 165.5 Q 190.2 166.8 189 171.5 Q 186.3 173.3 188 179.5 L 189 180.5 L 189 213.5 Q 186.3 215.2 188 221.5 L 189 226 L 229.5 226 L 230.5 227 L 244 228 L 242 248 L 251.5 249 L 253 250.5 L 253 280.5 L 254 281.5 L 189 282.5 L 189 284.5 L 187.5 288 L 187 286 L 176.5 286 L 175 287.5 L 175 349.5 L 174 352 L 161.5 352 L 160 353.5 Q 161.3 358.8 158.5 360 L 139.5 360 L 138 361.5 L 136 366.5 L 135 375.5 L 136 377.5 L 134.5 380 Q 136.8 379.3 136 381.5 L 140.5 384 L 185.5 384 L 187 382.5 L 188.5 338 L 189 385.5 L 188 385.5 L 187.5 384 L 177.5 386 L 154.5 386 L 153.5 385 L 141.5 385 L 136.5 386 L 136.5 384 L 125 384.5 L 131 385.5 L 123.5 386 L 123.5 384 Q 116.7 385.8 115 382.5 L 116 327 L 142 327 L 142 266.5 L 143 264.5 L 142 263.5 L 142 185 L 139 184.5 L 140 182.5 L 138 178.5 L 139 164.5 L 140.5 163 Q 148 162 151 164 L 151 264.5 L 150 265.5 L 153.5 267 L 171.5 267 L 175 266 L 175 132.5 L 176.5 131 L 188 131 L 188.5 124 Z M 216 238 L 214 240 L 214 254 L 231 254 L 232 255 L 234 254 L 236 254 L 236 240 L 235 238 L 216 238 Z " /><path fill="rgb(50,180,173)" stroke="rgb(50,180,173)" stroke-width="1" opacity="1" d="M 115.5 146 L 136.5 146 L 137 148.5 L 135.5 150 L 117.5 150 L 112 147.5 L 115.5 146 Z " /><path fill="rgb(50,180,173)" stroke="rgb(50,180,173)" stroke-width="1" opacity="1" d="M 344.5 162 L 346 163.5 L 346 183.5 L 344 184.5 L 345 183.5 L 345 163.5 L 344.5 162 Z " /><path fill="rgb(50,180,173)" stroke="rgb(50,180,173)" stroke-width="1" opacity="1" d="M 292.5 175 L 293.5 176 L 307 177 L 306.5 256 L 302 255 L 304 236.5 L 297.5 234 L 285 233 L 287 213 L 274 211.5 L 275 209.5 L 275 207.5 L 275 198.5 L 276.5 197 L 290.5 198 L 293 195.5 L 293 176.5 L 292.5 175 Z " /><path fill="rgb(50,180,173)" stroke="rgb(50,180,173)" stroke-width="1" opacity="1" d="M 269.5 184 L 275 185.5 L 269.5 187 L 269.5 184 Z " /><path fill="rgb(50,180,173)" stroke="rgb(50,180,173)" stroke-width="1" opacity="1" d="M 318.5 184 L 338 184.5 L 318 185 L 317.5 257 L 317 185.5 L 318.5 184 Z " /><path fill="rgb(50,180,173)" stroke="rgb(50,180,173)" stroke-width="1" opacity="1" d="M 139.5 186 L 138.5 188 L 139.5 186 Z " /><path fill="rgb(50,180,173)" stroke="rgb(50,180,173)" stroke-width="1" opacity="1" d="M 110.5 189 L 113 189.5 L 110.5 190 L 110.5 189 Z " /><path fill="rgb(50,180,173)" stroke="rgb(50,180,173)" stroke-width="1" opacity="1" d="M 193 220 L 212 220.5 L 194.5 221 L 193.5 222 L 193 220 Z " /><path fill="rgb(50,180,173)" stroke="rgb(50,180,173)" stroke-width="1" opacity="1" d="M 216.5 220 L 225.5 220 L 226 221.5 L 224.5 221 L 216.5 221 L 216.5 220 Z " /><path fill="rgb(50,180,173)" stroke="rgb(50,180,173)" stroke-width="1" opacity="1" d="M 269 272 L 278 272 L 278 278.5 L 277 279.5 L 276 292 L 295 295 L 293 313.5 L 294.5 315 L 306 316 L 306 330.5 L 304.5 332 L 285.5 332 L 284 333.5 L 288.5 336 L 304 336 L 304 349.5 L 303 350.5 L 302 362.5 Q 303.8 365.8 305.5 362 L 317 362 L 317 380.5 L 318 383 L 343.5 383 L 347 381 L 347 386 L 345.5 386 L 346 384.5 L 345.5 383 L 337.5 385 L 336.5 384 L 323.5 384 L 318.5 385 L 317.5 384 L 275.5 384 L 274 382.5 L 274 351.5 L 275 348.5 L 274 343.5 L 275 342.5 L 275 287.5 L 273.5 285 L 268 289.5 L 273 282.5 L 270.5 282 L 269.5 283 L 258.5 283 L 258.5 282 L 267.5 282 L 269 280.5 L 269 272 Z M 290 345 L 281 347 L 279 349 Q 276 348 277 351 Q 274 352 279 354 Q 280 351 285 352 L 287 350 L 286 348 L 290 347 L 290 345 Z M 285 357 L 285 359 L 290 359 L 290 357 L 285 357 Z M 302 364 L 298 368 L 298 369 L 290 369 L 290 376 Q 282 375 277 379 L 279 381 L 303 381 L 305 380 L 301 369 L 302 366 L 302 364 Z " /><path fill="rgb(50,180,173)" stroke="rgb(50,180,173)" stroke-width="1" opacity="1" d="M 136.5 319 L 137 320.5 L 135.5 322 L 111.5 322 L 111.5 321 L 135.5 321 L 136.5 319 Z " /><path fill="rgb(50,180,173)" stroke="rgb(50,180,173)" stroke-width="1" opacity="1" d="M 110.5 361 L 111.5 389 L 115.5 386 L 115.5 387 L 113 388.5 Q 114.1 391.8 111.5 391 L 109 388.5 L 109 372.5 Q 111.5 371 110 365.5 L 109 362.5 L 110.5 361 Z " /><path fill="rgb(50,180,173)" stroke="rgb(50,180,173)" stroke-width="1" opacity="1" d="M 269.5 361 L 270 385.5 L 269 385.5 L 269.5 361 Z " /><path fill="rgb(50,180,173)" stroke="rgb(50,180,173)" stroke-width="1" opacity="1" d="M 273.5 386 L 275 386.5 L 272 388.5 L 273 390.5 L 271.5 390 Q 269.3 390.8 270 388.5 L 273.5 386 Z " /><path fill="rgb(255,255,255)" stroke="rgb(255,255,255)" stroke-width="1" opacity="1" d="M 0 0 L 500 0 L 500 500 L 0 500 L 0 0 Z M 240 107 L 238 127 L 236 126 L 207 123 L 197 121 L 196 116 L 196 114 L 110 114 L 107 121 L 108 124 L 108 132 L 107 133 L 108 136 L 108 172 L 107 173 L 107 187 L 109 191 L 110 192 L 136 192 L 136 201 L 135 202 L 135 292 L 134 293 L 134 307 L 135 308 L 134 319 L 111 319 L 110 320 L 108 321 L 108 391 L 112 393 L 117 394 L 122 393 L 136 393 L 137 394 L 184 394 L 185 393 L 195 393 L 197 389 L 197 291 L 266 291 L 266 391 L 269 393 Q 275 391 277 394 L 280 393 L 292 393 L 293 394 L 297 393 L 301 394 L 306 393 L 338 393 L 339 394 L 344 393 L 347 394 L 353 393 L 354 383 L 375 385 L 376 386 L 383 386 L 384 387 L 389 347 L 388 345 L 374 344 L 370 343 L 372 323 L 353 321 L 355 301 L 336 299 L 338 279 L 326 278 L 324 277 L 324 194 L 325 193 L 351 193 L 353 190 L 353 165 L 355 159 L 356 145 L 357 144 L 353 142 L 353 134 L 352 133 Q 351 127 353 126 L 352 116 L 351 114 L 288 114 L 287 113 L 258 110 L 250 108 L 243 108 L 240 107 Z " /><path fill="rgb(255,255,255)" stroke="rgb(255,255,255)" stroke-width="1" opacity="1" d="M 254.5 171 L 266 172 L 266 189.5 Q 266 190.5 261.5 190 L 251 187.5 L 252 186.5 L 253 172.5 L 254.5 171 Z " /><path fill="rgb(255,255,255)" stroke="rgb(255,255,255)" stroke-width="1" opacity="1" d="M 209.5 204 L 227 207 L 226 218 L 208 218 L 208 211.5 L 209.5 204 Z " /><path fill="rgb(82,132,149)" stroke="rgb(82,132,149)" stroke-width="1" opacity="1" d="M 246.5 109 L 250 109.5 L 246.5 110 L 246.5 109 Z " /><path fill="rgb(82,132,149)" stroke="rgb(82,132,149)" stroke-width="1" opacity="1" d="M 254.5 110 L 257 110.5 L 254.5 111 L 254.5 110 Z " /><path fill="rgb(82,132,149)" stroke="rgb(82,132,149)" stroke-width="1" opacity="1" d="M 262.5 111 L 265 111.5 L 262.5 112 L 262.5 111 Z " /><path fill="rgb(82,132,149)" stroke="rgb(82,132,149)" stroke-width="1" opacity="1" d="M 269.5 112 L 272 112.5 L 269.5 113 L 269.5 112 Z " /><path fill="rgb(82,132,149)" stroke="rgb(82,132,149)" stroke-width="1" opacity="1" d="M 240.5 113 L 241 115.5 L 240 115.5 L 240.5 113 Z " /><path fill="rgb(82,132,149)" stroke="rgb(82,132,149)" stroke-width="1" opacity="1" d="M 277.5 113 L 280 113.5 L 277.5 114 L 277.5 113 Z " /><path fill="rgb(82,132,149)" stroke="rgb(82,132,149)" stroke-width="1" opacity="1" d="M 284.5 114 L 288 114.5 L 284.5 115 L 284.5 114 Z " /><path fill="rgb(82,132,149)" stroke="rgb(82,132,149)" stroke-width="1" opacity="1" d="M 293.5 115 L 297 115.5 L 293.5 116 L 293.5 115 Z " /><path fill="rgb(82,132,149)" stroke="rgb(82,132,149)" stroke-width="1" opacity="1" d="M 117.5 116 L 175 116.5 L 117.5 117 L 117.5 116 Z " /><path fill="rgb(82,132,149)" stroke="rgb(82,132,149)" stroke-width="1" opacity="1" d="M 302.5 116 L 307 116.5 L 302.5 117 L 302.5 116 Z " /><path fill="rgb(82,132,149)" stroke="rgb(82,132,149)" stroke-width="1" opacity="1" d="M 309.5 117 L 314 117.5 L 309.5 118 L 309.5 117 Z " /><path fill="rgb(82,132,149)" stroke="rgb(82,132,149)" stroke-width="1" opacity="1" d="M 316.5 118 L 320 118.5 L 316.5 119 L 316.5 118 Z " /><path fill="rgb(82,132,149)" stroke="rgb(82,132,149)" stroke-width="1" opacity="1" d="M 323.5 119 L 327 119.5 L 323.5 120 L 323.5 119 Z " /><path fill="rgb(82,132,149)" stroke="rgb(82,132,149)" stroke-width="1" opacity="1" d="M 330.5 120 L 334 120.5 L 330.5 121 L 330.5 120 Z " /><path fill="rgb(82,132,149)" stroke="rgb(82,132,149)" stroke-width="1" opacity="1" d="M 239.5 121 L 240 123.5 L 239 123.5 L 239.5 121 Z " /><path fill="rgb(82,132,149)" stroke="rgb(82,132,149)" stroke-width="1" opacity="1" d="M 195.5 122 L 196 125.5 L 195 126.5 L 195 181.5 L 196 186.5 L 195 187.5 L 195 198.5 L 196 200.5 L 194 202.5 L 194 217.5 L 195.5 219 L 207 219.5 L 193 220 L 191.5 223 L 189.5 224 Q 186.7 221.3 188 214.5 L 189 213.5 L 189 180.5 Q 186.3 178.7 188 172.5 Q 190.2 171.3 189 166.5 L 188 165.5 L 188 147.5 L 189 146.5 L 189 123 L 193.5 124 L 195.5 122 Z M 190 125 L 190 222 L 193 220 L 193 126 L 190 125 Z " /><path fill="rgb(82,132,149)" stroke="rgb(82,132,149)" stroke-width="1" opacity="1" d="M 338.5 122 L 339 124.5 L 338 124.5 L 338.5 122 Z " /><path fill="rgb(82,132,149)" stroke="rgb(82,132,149)" stroke-width="1" opacity="1" d="M 202.5 123 L 205 123.5 L 202.5 124 L 202.5 123 Z " /><path fill="rgb(82,132,149)" stroke="rgb(82,132,149)" stroke-width="1" opacity="1" d="M 210.5 124 L 213 124.5 L 210.5 125 L 210.5 124 Z " /><path fill="rgb(82,132,149)" stroke="rgb(82,132,149)" stroke-width="1" opacity="1" d="M 217.5 125 L 220 125.5 L 217.5 126 L 217.5 125 Z " /><path fill="rgb(82,132,149)" stroke="rgb(82,132,149)" stroke-width="1" opacity="1" d="M 347.5 125 L 350 125.5 L 350 132.5 L 351 133.5 L 351 142.5 L 349 141.5 L 349 127.5 L 347 127 L 346.5 142 L 346 126.5 L 347.5 125 Z " /><path fill="rgb(82,132,149)" stroke="rgb(82,132,149)" stroke-width="1" opacity="1" d="M 225.5 126 L 228 126.5 L 225.5 127 L 225.5 126 Z " /><path fill="rgb(82,132,149)" stroke="rgb(82,132,149)" stroke-width="1" opacity="1" d="M 232.5 127 L 235 127.5 L 232.5 128 L 232.5 127 Z " /><path fill="rgb(82,132,149)" stroke="rgb(82,132,149)" stroke-width="1" opacity="1" d="M 337.5 128 L 338 131.5 L 337 131.5 L 337.5 128 Z " /><path fill="rgb(82,132,149)" stroke="rgb(82,132,149)" stroke-width="1" opacity="1" d="M 239 129 L 243 129.5 L 242 132 L 245 131.5 L 244 129.5 L 245.5 130 L 252.5 130 L 258 131.5 L 255 145.5 L 256 146.5 L 254.5 149 L 257 149.5 L 253.5 150 L 245 148.5 L 248 147.5 L 245 146 L 240.5 138 L 240 142 Q 236.2 143.5 237 140.5 L 239 129 Z " /><path fill="rgb(82,132,149)" stroke="rgb(82,132,149)" stroke-width="1" opacity="1" d="M 260.5 131 L 263 131.5 L 260.5 132 L 260.5 131 Z " /><path fill="rgb(82,132,149)" stroke="rgb(82,132,149)" stroke-width="1" opacity="1" d="M 268.5 132 L 271 132.5 L 268.5 133 L 268.5 132 Z " /><path fill="rgb(82,132,149)" stroke="rgb(82,132,149)" stroke-width="1" opacity="1" d="M 275.5 133 L 280 133.5 L 275.5 134 L 275.5 133 Z " /><path fill="rgb(82,132,149)" stroke="rgb(82,132,149)" stroke-width="1" opacity="1" d="M 292.5 135 L 295 135.5 L 292.5 136 L 292.5 135 Z " /><path fill="rgb(82,132,149)" stroke="rgb(82,132,149)" stroke-width="1" opacity="1" d="M 299.5 136 L 302 136.5 L 299.5 137 L 299.5 136 Z " /><path fill="rgb(82,132,149)" stroke="rgb(82,132,149)" stroke-width="1" opacity="1" d="M 336.5 136 L 337 140.5 L 336 140.5 L 336.5 136 Z " /><path fill="rgb(82,132,149)" stroke="rgb(82,132,149)" stroke-width="1" opacity="1" d="M 306.5 137 L 310 137.5 L 306.5 138 L 306.5 137 Z " /><path fill="rgb(82,132,149)" stroke="rgb(82,132,149)" stroke-width="1" opacity="1" d="M 313.5 138 L 317 138.5 L 313.5 139 L 313.5 138 Z " /><path fill="rgb(82,132,149)" stroke="rgb(82,132,149)" stroke-width="1" opacity="1" d="M 319.5 139 L 324 139.5 L 319.5 140 L 319.5 139 Z " /><path fill="rgb(82,132,149)" stroke="rgb(82,132,149)" stroke-width="1" opacity="1" d="M 326.5 140 L 331 140.5 L 326.5 141 L 326.5 140 Z " /><path fill="rgb(82,132,149)" stroke="rgb(82,132,149)" stroke-width="1" opacity="1" d="M 332.5 141 Q 336.3 140 335 143 L 332.5 141 Z " /><path fill="rgb(82,132,149)" stroke="rgb(82,132,149)" stroke-width="1" opacity="1" d="M 339.5 141 L 343 141.5 L 339.5 142 L 339.5 141 Z " /><path fill="rgb(82,132,149)" stroke="rgb(82,132,149)" stroke-width="1" opacity="1" d="M 353.5 143 L 356 144.5 L 354.5 144 L 353.5 143 Z " /><path fill="rgb(82,132,149)" stroke="rgb(82,132,149)" stroke-width="1" opacity="1" d="M 334.5 146 L 335 149.5 L 331.5 152 L 331.5 151 Q 333.8 151.8 333 149.5 L 334.5 146 Z " /><path fill="rgb(82,132,149)" stroke="rgb(82,132,149)" stroke-width="1" opacity="1" d="M 110 147 L 112 147.5 L 110 148.5 L 110 147 Z " /><path fill="rgb(82,132,149)" stroke="rgb(82,132,149)" stroke-width="1" opacity="1" d="M 238.5 147 L 241 147.5 L 238.5 148 L 238.5 147 Z " /><path fill="rgb(82,132,149)" stroke="rgb(82,132,149)" stroke-width="1" opacity="1" d="M 354.5 149 L 355 151.5 L 354 151.5 L 354.5 149 Z " /><path fill="rgb(82,132,149)" stroke="rgb(82,132,149)" stroke-width="1" opacity="1" d="M 262.5 150 L 265 150.5 L 262.5 151 L 262.5 150 Z " /><path fill="rgb(82,132,149)" stroke="rgb(82,132,149)" stroke-width="1" opacity="1" d="M 270.5 151 L 273 151.5 L 270.5 152 L 270.5 151 Z " /><path fill="rgb(82,132,149)" stroke="rgb(82,132,149)" stroke-width="1" opacity="1" d="M 234.5 152 L 235 157.5 L 234 157.5 L 234.5 152 Z " /><path fill="rgb(82,132,149)" stroke="rgb(82,132,149)" stroke-width="1" opacity="1" d="M 333.5 153 L 334 157.5 L 333 160 L 336 160.5 L 333.5 162 L 333 160 L 328 159.5 L 333 157.5 L 332 155.5 L 333.5 153 Z " /><path fill="rgb(82,132,149)" stroke="rgb(82,132,149)" stroke-width="1" opacity="1" d="M 305.5 156 L 308 156.5 L 305.5 157 L 305.5 156 Z " /><path fill="rgb(82,132,149)" stroke="rgb(82,132,149)" stroke-width="1" opacity="1" d="M 313.5 157 L 316 157.5 L 313.5 158 L 313.5 157 Z " /><path fill="rgb(82,132,149)" stroke="rgb(82,132,149)" stroke-width="1" opacity="1" d="M 353.5 157 L 354 159.5 L 353 159.5 L 353.5 157 Z " /><path fill="rgb(82,132,149)" stroke="rgb(82,132,149)" stroke-width="1" opacity="1" d="M 320.5 158 L 324 158.5 L 320.5 159 L 320.5 158 Z " /><path fill="rgb(82,132,149)" stroke="rgb(82,132,149)" stroke-width="1" opacity="1" d="M 339.5 161 L 343 161.5 L 339.5 162 L 339.5 161 Z " /><path fill="rgb(82,132,149)" stroke="rgb(82,132,149)" stroke-width="1" opacity="1" d="M 345.5 162 L 347 162.5 L 347 183.5 L 345 184.5 L 346 183.5 L 346 163.5 L 345.5 162 Z " /><path fill="rgb(82,132,149)" stroke="rgb(82,132,149)" stroke-width="1" opacity="1" d="M 349 163 L 351 163.5 L 351 188.5 L 349.5 190 L 326.5 190 L 323 191 L 322 193.5 L 322 276.5 L 325 278.5 L 323.5 279 L 321 278 L 321 266.5 L 320 264.5 Q 322.5 263 321 257.5 L 321 255.5 L 320 251.5 Q 322.5 250 321 244.5 L 321 242.5 L 321 189.5 L 322.5 188 L 323.5 189 L 345.5 189 L 350 186.5 L 349 182.5 L 349 163 Z " /><path fill="rgb(82,132,149)" stroke="rgb(82,132,149)" stroke-width="1" opacity="1" d="M 332.5 166 L 333 169.5 L 332 169.5 L 332.5 166 Z " /><path fill="rgb(82,132,149)" stroke="rgb(82,132,149)" stroke-width="1" opacity="1" d="M 253.5 169 L 256 169.5 L 253 170 L 252.5 172 L 252 170.5 L 253.5 169 Z " /><path fill="rgb(82,132,149)" stroke="rgb(82,132,149)" stroke-width="1" opacity="1" d="M 261.5 170 L 264 170.5 L 261.5 171 L 261.5 170 Z " /><path fill="rgb(82,132,149)" stroke="rgb(82,132,149)" stroke-width="1" opacity="1" d="M 274.5 172 L 278 172.5 L 274.5 173 L 274.5 172 Z " /><path fill="rgb(82,132,149)" stroke="rgb(82,132,149)" stroke-width="1" opacity="1" d="M 280.5 173 L 285 173.5 L 280.5 174 L 280.5 173 Z " /><path fill="rgb(82,132,149)" stroke="rgb(82,132,149)" stroke-width="1" opacity="1" d="M 331.5 173 L 332 176.5 L 331 176.5 L 331.5 173 Z " /><path fill="rgb(82,132,149)" stroke="rgb(82,132,149)" stroke-width="1" opacity="1" d="M 287.5 174 L 292 174.5 L 287.5 175 L 287.5 174 Z " /><path fill="rgb(82,132,149)" stroke="rgb(82,132,149)" stroke-width="1" opacity="1" d="M 293.5 175 L 298 175.5 L 293.5 176 L 293.5 175 Z " /><path fill="rgb(82,132,149)" stroke="rgb(82,132,149)" stroke-width="1" opacity="1" d="M 251.5 176 L 252 178.5 L 251 178.5 L 251.5 176 Z " /><path fill="rgb(82,132,149)" stroke="rgb(82,132,149)" stroke-width="1" opacity="1" d="M 301.5 176 L 307 176.5 L 301.5 177 L 301.5 176 Z " /><path fill="rgb(82,132,149)" stroke="rgb(82,132,149)" stroke-width="1" opacity="1" d="M 311.5 177 L 315 177.5 L 311.5 178 L 311.5 177 Z " /><path fill="rgb(82,132,149)" stroke="rgb(82,132,149)" stroke-width="1" opacity="1" d="M 318.5 178 L 322 178.5 L 318.5 179 L 318.5 178 Z " /><path fill="rgb(82,132,149)" stroke="rgb(82,132,149)" stroke-width="1" opacity="1" d="M 325.5 179 L 329 179.5 L 325.5 180 L 325.5 179 Z " /><path fill="rgb(82,132,149)" stroke="rgb(82,132,149)" stroke-width="1" opacity="1" d="M 250.5 183 L 251 186.5 L 250 186.5 L 250.5 183 Z " /><path fill="rgb(82,132,149)" stroke="rgb(82,132,149)" stroke-width="1" opacity="1" d="M 117.5 184 L 138.5 184 L 140 185.5 L 136.5 190 L 113.5 190 L 112 188.5 L 114.5 185 L 116 185.5 L 114 186.5 L 115.5 188 L 136.5 188 L 138 185 L 117.5 185 L 117.5 184 Z " /><path fill="rgb(82,132,149)" stroke="rgb(82,132,149)" stroke-width="1" opacity="1" d="M 318.5 185 L 319 256.5 L 315.5 258 L 315.5 257 L 318 256.5 L 318.5 185 Z " /><path fill="rgb(82,132,149)" stroke="rgb(82,132,149)" stroke-width="1" opacity="1" d="M 250.5 188 L 254 189.5 L 251.5 190 L 250.5 188 Z " /><path fill="rgb(82,132,149)" stroke="rgb(82,132,149)" stroke-width="1" opacity="1" d="M 258.5 190 L 262 190.5 L 258.5 191 L 258.5 190 Z " /><path fill="rgb(82,132,149)" stroke="rgb(82,132,149)" stroke-width="1" opacity="1" d="M 266.5 191 Q 272.6 189.2 270 196.5 L 269 196.5 Q 271.1 190.7 266.5 192 L 266.5 191 Z " /><path fill="rgb(82,132,149)" stroke="rgb(82,132,149)" stroke-width="1" opacity="1" d="M 268.5 199 L 269 204.5 L 268 204.5 L 268.5 199 Z " /><path fill="rgb(82,132,149)" stroke="rgb(82,132,149)" stroke-width="1" opacity="1" d="M 220.5 204 L 223 204.5 L 220.5 205 L 220.5 204 Z " /><path fill="rgb(82,132,149)" stroke="rgb(82,132,149)" stroke-width="1" opacity="1" d="M 267.5 206 L 268 208.5 L 267 208.5 L 267.5 206 Z " /><path fill="rgb(82,132,149)" stroke="rgb(82,132,149)" stroke-width="1" opacity="1" d="M 207.5 207 L 208 209.5 L 207 209.5 L 207.5 207 Z " /><path fill="rgb(82,132,149)" stroke="rgb(82,132,149)" stroke-width="1" opacity="1" d="M 269.5 211 L 272 211.5 L 269.5 212 L 269.5 211 Z " /><path fill="rgb(82,132,149)" stroke="rgb(82,132,149)" stroke-width="1" opacity="1" d="M 277.5 212 L 282 212.5 L 277.5 213 L 277.5 212 Z " /><path fill="rgb(82,132,149)" stroke="rgb(82,132,149)" stroke-width="1" opacity="1" d="M 285.5 213 Q 288.3 212.4 287 218.5 L 286 218.5 L 285.5 213 Z " /><path fill="rgb(82,132,149)" stroke="rgb(82,132,149)" stroke-width="1" opacity="1" d="M 206.5 215 L 207 217.5 L 206 217.5 L 206.5 215 Z " /><path fill="rgb(82,132,149)" stroke="rgb(82,132,149)" stroke-width="1" opacity="1" d="M 285.5 222 L 286 225.5 L 285 225.5 L 285.5 222 Z " /><path fill="rgb(82,132,149)" stroke="rgb(82,132,149)" stroke-width="1" opacity="1" d="M 226.5 225 L 243.5 227 L 245 228.5 L 244.5 234 L 244 228 L 230.5 227 L 226.5 226 L 226.5 225 Z " /><path fill="rgb(82,132,149)" stroke="rgb(82,132,149)" stroke-width="1" opacity="1" d="M 284.5 229 L 285 232.5 L 284 232.5 L 284.5 229 Z " /><path fill="rgb(82,132,149)" stroke="rgb(82,132,149)" stroke-width="1" opacity="1" d="M 286.5 233 L 290 233.5 L 286.5 234 L 286.5 233 Z " /><path fill="rgb(82,132,149)" stroke="rgb(82,132,149)" stroke-width="1" opacity="1" d="M 293.5 234 L 298 234.5 L 293.5 235 L 293.5 234 Z " /><path fill="rgb(82,132,149)" stroke="rgb(82,132,149)" stroke-width="1" opacity="1" d="M 243.5 235 L 244 241.5 L 243 241.5 L 243.5 235 Z " /><path fill="rgb(82,132,149)" stroke="rgb(82,132,149)" stroke-width="1" opacity="1" d="M 301.5 235 L 304 236.5 L 303.5 240 L 303 236 L 301.5 235 Z " /><path fill="rgb(82,132,149)" stroke="rgb(82,132,149)" stroke-width="1" opacity="1" d="M 242.5 243 L 243 247 L 245 247.5 L 242 248 L 242.5 243 Z " /><path fill="rgb(82,132,149)" stroke="rgb(82,132,149)" stroke-width="1" opacity="1" d="M 302.5 243 L 303 247.5 L 302 247.5 L 302.5 243 Z " /><path fill="rgb(82,132,149)" stroke="rgb(82,132,149)" stroke-width="1" opacity="1" d="M 246.5 248 Q 251.9 247.4 254 249 L 254 278.5 L 255.5 280 L 266.5 280 L 268 278.5 L 268 276.5 L 268 271 L 275.5 271 L 275.5 272 L 269 272 L 269 280.5 L 267.5 282 L 254.5 282 L 253 280.5 L 253 250.5 L 251.5 249 Q 245.5 250.2 246.5 248 Z " /><path fill="rgb(82,132,149)" stroke="rgb(82,132,149)" stroke-width="1" opacity="1" d="M 301.5 251 L 302 255 L 306 255.5 L 302.5 256 Q 299.8 254.8 301.5 251 Z " /><path fill="rgb(82,132,149)" stroke="rgb(82,132,149)" stroke-width="1" opacity="1" d="M 308.5 256 L 312 256.5 L 308.5 257 L 308.5 256 Z " /><path fill="rgb(82,132,149)" stroke="rgb(82,132,149)" stroke-width="1" opacity="1" d="M 278.5 272 L 279 277.5 L 278 277.5 L 278.5 272 Z " /><path fill="rgb(82,132,149)" stroke="rgb(82,132,149)" stroke-width="1" opacity="1" d="M 277.5 279 L 278 285.5 L 277 291 L 279 291.5 L 276 292 L 277.5 279 Z " /><path fill="rgb(82,132,149)" stroke="rgb(82,132,149)" stroke-width="1" opacity="1" d="M 329.5 279 L 332 279.5 L 329.5 280 L 329.5 279 Z " /><path fill="rgb(82,132,149)" stroke="rgb(82,132,149)" stroke-width="1" opacity="1" d="M 336.5 282 L 337 284.5 L 336 284.5 L 336.5 282 Z " /><path fill="rgb(82,132,149)" stroke="rgb(82,132,149)" stroke-width="1" opacity="1" d="M 190.5 283 L 271.5 283 L 272 285.5 L 268.5 289 L 196.5 289 L 195 290.5 L 195 389.5 L 193.5 391 L 124.5 391 Q 123.3 393.3 118.5 392 L 116.5 391 L 114.5 391 Q 111.9 391.8 113 388.5 L 115 387.5 L 115.5 389 L 193 389 L 193 288.5 L 194.5 287 L 197.5 288 L 199.5 288 L 259.5 288 L 260.5 287 Q 262 289.5 267.5 288 L 271 285.5 L 270.5 284 L 190 284 L 190 385.5 L 188.5 387 L 116 386.5 L 189 386 L 188.5 338 L 187 382.5 L 185.5 384 L 140.5 384 L 136 381.5 Q 136.8 379.3 134.5 380 L 136 377.5 L 135 373.5 Q 137.5 372 136 366.5 L 139.5 360 L 158.5 360 L 160 358.5 Q 158.8 353.3 161.5 352 L 173.5 352 L 174 350.5 L 175 349.5 L 175 287.5 L 176.5 286 L 186.5 286 L 187 287.5 L 189 286.5 L 190.5 283 Z M 176 288 L 176 352 L 174 354 L 162 354 L 162 360 L 160 362 L 141 362 L 139 364 L 139 382 L 185 382 L 186 381 L 186 289 L 186 288 L 176 288 Z " /><path fill="rgb(82,132,149)" stroke="rgb(82,132,149)" stroke-width="1" opacity="1" d="M 335.5 290 L 336 292.5 L 335 292.5 L 335.5 290 Z " /><path fill="rgb(82,132,149)" stroke="rgb(82,132,149)" stroke-width="1" opacity="1" d="M 280.5 292 L 285 292.5 L 280.5 293 L 280.5 292 Z " /><path fill="rgb(82,132,149)" stroke="rgb(82,132,149)" stroke-width="1" opacity="1" d="M 286.5 293 L 296 294 L 294 314 L 305.5 315 L 307 316.5 L 308 319.5 L 307 320.5 L 307 360 L 316.5 360 L 319 362.5 L 319 380.5 L 320.5 382 L 342.5 382 L 346.5 380 Q 349 381 348 385.5 L 346.5 387 L 275.5 387 L 275.5 386 L 346.5 386 L 347 381 L 343.5 383 L 318 383 L 317 380.5 L 317 362 L 305.5 362 L 303.5 364 Q 301.3 363.3 302 359.5 L 304 349.5 L 304 336 L 288.5 336 L 284 333.5 L 285.5 332 L 304.5 332 L 306 330.5 L 306 316.5 Q 306 315.5 301.5 316 Q 300 313.5 294.5 315 L 293 313.5 L 295 295 Q 292.6 293.3 286.5 294 L 286.5 293 Z " /><path fill="rgb(82,132,149)" stroke="rgb(82,132,149)" stroke-width="1" opacity="1" d="M 338.5 300 L 341 300.5 L 338.5 301 L 338.5 300 Z " /><path fill="rgb(82,132,149)" stroke="rgb(82,132,149)" stroke-width="1" opacity="1" d="M 345.5 301 L 348 301.5 L 345.5 302 L 345.5 301 Z " /><path fill="rgb(82,132,149)" stroke="rgb(82,132,149)" stroke-width="1" opacity="1" d="M 353.5 304 L 354 306.5 L 353 306.5 L 353.5 304 Z " /><path fill="rgb(82,132,149)" stroke="rgb(82,132,149)" stroke-width="1" opacity="1" d="M 352.5 311 L 353 314.5 L 352 314.5 L 352.5 311 Z " /><path fill="rgb(82,132,149)" stroke="rgb(82,132,149)" stroke-width="1" opacity="1" d="M 353.5 322 L 357 322.5 L 353.5 323 L 353.5 322 Z " /><path fill="rgb(82,132,149)" stroke="rgb(82,132,149)" stroke-width="1" opacity="1" d="M 361.5 323 L 365 323.5 L 361.5 324 L 361.5 323 Z " /><path fill="rgb(82,132,149)" stroke="rgb(82,132,149)" stroke-width="1" opacity="1" d="M 368.5 324 L 371 325.5 L 370.5 328 L 370 325 L 368.5 324 Z " /><path fill="rgb(82,132,149)" stroke="rgb(82,132,149)" stroke-width="1" opacity="1" d="M 368.5 340 L 369 343.5 L 368 343.5 L 368.5 340 Z " /><path fill="rgb(82,132,149)" stroke="rgb(82,132,149)" stroke-width="1" opacity="1" d="M 289.5 345 L 290 347 L 286 347.5 L 287 349.5 L 284.5 352 Q 279.5 351 278.5 354 Q 274.2 352.3 277 350.5 Q 276.3 348.3 278.5 349 L 280.5 347 L 289.5 345 Z " /><path fill="rgb(82,132,149)" stroke="rgb(82,132,149)" stroke-width="1" opacity="1" d="M 384.5 346 L 388 347.5 L 387.5 349 L 387 347 Q 383.7 347.8 384.5 346 Z " /><path fill="rgb(82,132,149)" stroke="rgb(82,132,149)" stroke-width="1" opacity="1" d="M 285 357 L 290 357 L 290 359 L 285 359 L 285 357 Z " /><path fill="rgb(82,132,149)" stroke="rgb(82,132,149)" stroke-width="1" opacity="1" d="M 344 360 L 347 361.5 L 344.5 376 L 344 360 Z " /><path fill="rgb(82,132,149)" stroke="rgb(82,132,149)" stroke-width="1" opacity="1" d="M 301.5 364 L 302 365.5 L 301 368.5 L 305 379.5 L 302.5 381 L 278.5 381 L 277 378.5 Q 281.5 374.8 290 376 L 290 369 L 297.5 369 L 298 367.5 L 301.5 364 Z " /><path fill="rgb(82,132,149)" stroke="rgb(82,132,149)" stroke-width="1" opacity="1" d="M 351.5 381 L 353 381.5 L 352 382.5 L 352 390 L 349.5 391 L 274.5 391 L 272 390 L 273.5 387 L 273.5 389 L 349.5 389 Q 350.8 388.8 350 382.5 L 351.5 381 Z " /></svg>