<svg width="500" height="500" version="1.1" xmlns="http://www.w3.org/2000/svg" desc="Created with imagetracer.js version 1.2.6" ><path fill="rgb(145,195,208)" d="M241.5 108L241 109.5L240.5 113L240 109.5L241.5 108Z" /><path fill="rgb(145,195,208)" d="M243.5 108L246 108.5L243.5 109L243.5 108Z" /><path fill="rgb(145,195,208)" d="M250.5 109L254 109.5L250.5 110L250.5 109Z" /><path fill="rgb(145,195,208)" d="M257.5 110L261 110.5L257.5 111L257.5 110Z" /><path fill="rgb(145,195,208)" d="M265.5 111L269 111.5L265.5 112L265.5 111Z" /><path fill="rgb(145,195,208)" d="M272.5 112L276 112.5L272.5 113L272.5 112Z" /><path fill="rgb(145,195,208)" d="M280.5 113L284 113.5L280.5 114L280.5 113Z" /><path fill="rgb(145,195,208)" d="M288.5 114L292 114.5L288.5 115L288.5 114Z" /><path fill="rgb(145,195,208)" d="M110.5 115L194 115.5L117 116.5L194 117L194 123L191.5 123 Q 189.8 120.3 188 124.5L188 131L176.5 131L175 132.5L175 266L171.5 267L153.5 267L150 265.5L151 264.5L151 164 Q 148 162 140.5 163L139 164.5L138 178.5L140 182.5L139.5 184L116.5 184L112 186 Q 113.5 189.7 110.5 189L109 189.5L108 187.5L108 169.5L109 168.5L109 144.5L108 143.5L108 118.5L110.5 115ZM113 119L111 121L111 146L115 145L115 123L116 122L190 122L190 119L113 119ZM116 146L115 147 Q 109 145 110 149L112 148L118 150L136 150L137 149L137 146L116 146ZM111 150L111 184L113 185L115 184L115 151L111 150Z" /><path fill="rgb(145,195,208)" d="M297.5 115L348.5 115L351 116L352 121.5L351 122.5L350.5 133L350 124L346.5 123L345 124.5L345 140.5L343.5 142L337 140.5L340 140L340 130.5 Q 336.8 131.5 338 125.5L339 122.5L334 120.5L337.5 120 Q 339 123.5 345.5 122L347 119L327.5 120L308.5 116L297.5 116L297.5 115ZM318 116L318 117L348 117L318 116Z" /><path fill="rgb(145,195,208)" d="M239.5 116L240 120.5L239 120.5L239.5 116Z" /><path fill="rgb(145,195,208)" d="M195.5 120L196 122L202 122.5L196.5 123L195.5 120Z" /><path fill="rgb(145,195,208)" d="M205.5 123L210 123.5L205.5 124L205.5 123Z" /><path fill="rgb(145,195,208)" d="M213.5 124L217 124.5L213.5 125L213.5 124Z" /><path fill="rgb(145,195,208)" d="M238.5 124L239 126.5L235.5 128L235.5 127 Q 239.5 128.1 238.5 124Z" /><path fill="rgb(145,195,208)" d="M220.5 125L225 125.5L220.5 126L220.5 125Z" /><path fill="rgb(145,195,208)" d="M228.5 126L232 126.5L228.5 127L228.5 126Z" /><path fill="rgb(145,195,208)" d="M243.5 129L245 131.5L242 132L243.5 129Z" /><path fill="rgb(145,195,208)" d="M258.5 131L312.5 138L319.5 140L325.5 140 Q 326.8 142.3 331.5 141L335 143L333 150.5L334 152.5L332 155.5L333 157.5 Q 331.3 160.8 324.5 159L323.5 158L278.5 153L272.5 151L257.5 150L254 148.5L256 144.5L257 132.5L258.5 131Z" /><path fill="rgb(145,195,208)" d="M337.5 132L338 137.5L337 137.5L337.5 132Z" /><path fill="rgb(145,195,208)" d="M351.5 134L352 142.5L351 142.5L351.5 134Z" /><path fill="rgb(145,195,208)" d="M240.5 138L245 146L248 147.5L241.5 148L237 147L237 142 Q 241.7 143.6 240.5 138Z" /><path fill="rgb(145,195,208)" d="M196 143L235 148 Q 232.9 154.4 234 165.5L232.5 167L214 165L213 179.5L210.5 184L196.5 183L195 181.5L195 151.5L196 150.5L196 143Z" /><path fill="rgb(145,195,208)" d="M355.5 145L356 147.5L355 147.5L355.5 145Z" /><path fill="rgb(145,195,208)" d="M354.5 152L355 155.5L354 155.5L354.5 152Z" /><path fill="rgb(145,195,208)" d="M353.5 160L354 162.5L353 162.5L353.5 160Z" /><path fill="rgb(145,195,208)" d="M334.5 161L343.5 162L345 163.5L345 183.5L343.5 185 Q 338.8 186.2 337.5 184L318.5 184L317 185.5L317 257L307 256L307 177.5L310.5 177L311.5 178L331 180L332 170L334 169.5 Q 331.5 168 333 162.5L334.5 161ZM337 162L337 168L339 168L339 162L337 162ZM338 171 Q 335 176 339 175L338 171ZM337 176 Q 336 179 339 178 Q 340 175 337 176ZM314 206L313 223L314 223L314 206Z" /><path fill="rgb(145,195,208)" d="M351.5 163L352 189.5L350.5 191L326.5 191L326.5 190L349.5 190L351 188.5L351.5 163Z" /><path fill="rgb(145,195,208)" d="M257.5 170L261 170.5L257.5 171L257.5 170Z" /><path fill="rgb(145,195,208)" d="M264.5 171L280.5 174L286.5 174L293 176.5L293 195.5L290.5 198L276.5 197L275 198.5L275 207.5L274 208.5L275 210.5L272.5 212L273 210.5L274 188.5 Q 272.5 185.5 271 188.5L271 210.5L267 211L269 205.5L270 191L268 190.5L268 172.5L264.5 172L264.5 171ZM270 173L270 178L270 180L271 183 Q 273 186 274 183L274 173L270 173ZM270 184L270 187L275 186L270 184Z" /><path fill="rgb(145,195,208)" d="M252.5 172L253 175.5L252 175.5L252.5 172Z" /><path fill="rgb(145,195,208)" d="M251.5 179L252 182.5L251 182.5L251.5 179Z" /><path fill="rgb(145,195,208)" d="M140 185L142 185.5L142 263.5L143 265.5L142 266.5L142 327L116 327L116 362.5L115 363.5L115 382.5L116.5 384L124 384.5L122.5 386L114.5 386L111.5 389L110.5 361L109 364.5 Q 111.5 366 110 371.5L109 372.5L109 388.5L110.5 391L108 388.5L108 371.5 Q 110.3 370.3 109 365.5L108 361.5L109 360.5L109 332.5 Q 106.5 331 108 325.5L108 323.5L110.5 320L135.5 320L136.5 321L137 319.5L136 318.5L136 197.5 Q 138.3 196.3 137 191.5L136 190.5L140 186.5L140 185ZM141 187L139 190L139 276L140 277L139 312L139 314L139 324L114 324L112 327L111 330L111 359L113 360L114 360L114 328L116 326L141 326L141 187ZM112 321L112 322L136 322L112 321Z" /><path fill="rgb(145,195,208)" d="M254.5 189L258 189.5L254.5 190L254.5 189Z" /><path fill="rgb(145,195,208)" d="M112.5 190L116 190.5L112.5 191L112.5 190Z" /><path fill="rgb(145,195,208)" d="M262.5 190L265 190.5L262.5 191L262.5 190Z" /><path fill="rgb(145,195,208)" d="M323.5 191L324 192.5L323 193.5L323 202.5L324 203.5L324 212.5L323 213.5L323 252.5L323 254.5L323 276.5L324 277.5L322 276.5L322 193.5L323.5 191Z" /><path fill="rgb(145,195,208)" d="M208 203L213 203.5L209 204L208.5 207L208 203Z" /><path fill="rgb(145,195,208)" d="M214.5 204L220 204.5L214.5 205L214.5 204Z" /><path fill="rgb(145,195,208)" d="M222.5 205L228 205L228 212.5L227 212.5L227 206L222.5 206L222.5 205Z" /><path fill="rgb(145,195,208)" d="M207.5 210L208 214.5L207 214.5L207.5 210Z" /><path fill="rgb(145,195,208)" d="M226.5 214L227 218.5L225.5 220L216 220.5L224.5 221L226 222.5L225.5 226L189 226 Q 187.9 223.3 190.5 224L194.5 221L212 220.5 Q 207.4 221.1 206 218.5L207.5 219L212.5 220L213.5 219L226 219L226.5 214ZM196 223L192 225L225 225L225 223L196 223Z" /><path fill="rgb(145,195,208)" d="M247.5 218L249 220.5L249 224.5 Q 250.5 228.9 247.5 228 Q 244.8 226.8 246 221.5L247.5 218Z" /><path fill="rgb(145,195,208)" d="M215.5 238L234.5 238L236 239.5L236 253.5L233.5 254L231.5 255L230.5 254L214 254L214 239.5L215.5 238Z" /><path fill="rgb(145,195,208)" d="M280 269L284.5 270L285.5 269L288.5 272L290 272.5L286.5 273L280 272L280 269Z" /><path fill="rgb(145,195,208)" d="M294.5 273L297 273.5L294.5 274L294.5 273Z" /><path fill="rgb(145,195,208)" d="M325.5 278L329 278.5L325.5 279L325.5 278Z" /><path fill="rgb(145,195,208)" d="M332.5 279 Q 337 278 338 280.5L337.5 283L337 280L332.5 280L332.5 279Z" /><path fill="rgb(145,195,208)" d="M189.5 282L258 282.5L189.5 283L189.5 282Z" /><path fill="rgb(145,195,208)" d="M270.5 282L273 282.5L270.5 283L270.5 282Z" /><path fill="rgb(145,195,208)" d="M273.5 285L275 287.5L275 342.5L274 347.5L275 350.5L274 351.5L274 382.5L275.5 384L317.5 384L322.5 385L323.5 384L336.5 384L339.5 385L345.5 383L346 384.5L344.5 386L314.5 386L312.5 386L309.5 385L308.5 386L273.5 386L270 388.5 Q 269.3 390.8 271.5 390L271.5 391 Q 266.7 392.7 268 388.5L267 386.5L268 385.5L268 290.5L267.5 289L268.5 290L273.5 285ZM272 337L271 340L272 340L272 337ZM270 361L269 386L270 386L270 361Z" /><path fill="rgb(145,195,208)" d="M336.5 285L337 289.5L336 289.5L336.5 285Z" /><path fill="rgb(145,195,208)" d="M196.5 289L212 289.5L196 290L196 389.5L193.5 392L124 391.5L193.5 391L195 389.5L195 290.5L196.5 289Z" /><path fill="rgb(145,195,208)" d="M335.5 293L336 296.5L335 296.5L335.5 293Z" /><path fill="rgb(145,195,208)" d="M335.5 299L338 299.5L335.5 300L335.5 299Z" /><path fill="rgb(145,195,208)" d="M341.5 300L345 300.5L341.5 301L341.5 300Z" /><path fill="rgb(145,195,208)" d="M348.5 301L353 301.5L348.5 302L348.5 301Z" /><path fill="rgb(145,195,208)" d="M353.5 307L354 310.5L353 310.5L353.5 307Z" /><path fill="rgb(145,195,208)" d="M352.5 315L353 318.5L352 318.5L352.5 315Z" /><path fill="rgb(145,195,208)" d="M357.5 322L361 322.5L357.5 323L357.5 322Z" /><path fill="rgb(145,195,208)" d="M365.5 323L369 323.5L365.5 324L365.5 323Z" /><path fill="rgb(145,195,208)" d="M370.5 328L371 332.5L370 332.5L370.5 328Z" /><path fill="rgb(145,195,208)" d="M369.5 335L370 339.5L369 339.5L369.5 335Z" /><path fill="rgb(145,195,208)" d="M349 342L368 344.5 Q 364.5 346 367 347.5L366 360.5L365 363 Q 361.2 361.2 353.5 362L347 360L349 342ZM358 345L356 347 Q 355 349 358 348L358 350L360 350L361 350 Q 359 357 364 355 Q 365 349 362 347 Q 363 343 358 345Z" /><path fill="rgb(145,195,208)" d="M372.5 344L377 344.5L372.5 345L372.5 344Z" /><path fill="rgb(145,195,208)" d="M379.5 345L384 345.5L379.5 346L379.5 345Z" /><path fill="rgb(145,195,208)" d="M387.5 349L388 353.5L387 353.5L387.5 349Z" /><path fill="rgb(145,195,208)" d="M386.5 356L387 360.5L386 360.5L386.5 356Z" /><path fill="rgb(145,195,208)" d="M385.5 363L386 368.5L385 368.5L385.5 363Z" /><path fill="rgb(145,195,208)" d="M384.5 371L385 375.5L384 375.5L384.5 371Z" /><path fill="rgb(145,195,208)" d="M383.5 377L384 382.5L383 382.5L383.5 377Z" /><path fill="rgb(145,195,208)" d="M353.5 381L364 382.5L358.5 383L353 382L353 390.5L351.5 391L350.5 392L274.5 392L273.5 390L274.5 391L349.5 391L352 390L352 382.5L353.5 381Z" /><path fill="rgb(145,195,208)" d="M365.5 383L371 383.5L365.5 384L365.5 383Z" /><path fill="rgb(145,195,208)" d="M125.5 384L137 384.5 Q 136 387 131.5 386 Q 130.2 383.8 125.5 385L125.5 384Z" /><path fill="rgb(145,195,208)" d="M187.5 384L188 386L178 385.5L186.5 385L187.5 384Z" /><path fill="rgb(145,195,208)" d="M372.5 384L378 384.5L372.5 385L372.5 384Z" /><path fill="rgb(145,195,208)" d="M382.5 384L383 386L380 385.5L382.5 384Z" /><path fill="rgb(145,195,208)" d="M141.5 385L154 385.5L141.5 386L141.5 385Z" /><path fill="rgb(145,195,208)" d="M112.5 391L115 391.5L112.5 392L112.5 391Z" /><path fill="rgb(88,36,126)" d="M241 109L338 121L336 141L347 142L347 127.5L349 127L349 141.5L350.5 143L355 144L354 156.5L351.5 163L349 163.5L349 182.5L350 186.5L345.5 189L323.5 189 Q 322.3 186.8 321 189.5L321 242.5L320 243.5 Q 322.5 245 321 250.5L320 252.5L321 255.5L321 257.5L320 265.5L321 266.5L321 278L329.5 280L335.5 280L337 281.5L334 300L345.5 302L352.5 302L354 303.5L351 320.5L353.5 323L360.5 323L370 325L368 344L387 347L383 382.5L382 385L357.5 381L351.5 381 Q 348.3 382.9 350 389L273 388.5L274.5 387L346.5 387L348 385.5 Q 349 381 346.5 380L342.5 382L320.5 382L319 380.5L319 362.5L316.5 360L307.5 360L307 359.5L307 320.5L307 318.5L305.5 315L294 314L296 294L277 291L279 272L268 271L267 277.5 Q 269.3 278.8 266.5 280L255.5 280L254 278.5L254 249.5L252.5 249L243 247L245 228.5L243.5 227L226 225L228 213.5L228 205L208 203L206 219L195.5 219L194 217.5L194 202.5L196 199.5L195 198.5L195 187.5L196 183L210.5 184L213 179.5L214 165L232.5 167L234 165.5L235 149.5L236 148.5L232.5 147L225.5 147L224.5 146L217.5 146L216.5 145L196 143L195.5 151L195 126.5L196 123L239 128L241 109ZM239 129L237 147L239 148 Q 244 147 246 149L270 151L277 153L333 160L334 158L335 141L311 138L310 137L296 136L295 135L281 134L280 133L272 133L271 132L239 129ZM333 160L331 179L330 180L329 179L308 177L307 176L299 176L292 174L254 169L252 171L250 189L252 190L266 191L269 192L267 211L270 212L285 213L286 215L286 222L284 233L303 236L301 255L303 256L315 257L316 258L319 257L319 185L346 185L347 184L347 162L333 160ZM248 218L246 222 Q 245 227 248 228 Q 250 229 249 225L249 221L248 218ZM280 269L280 272L287 273L290 273L289 272L286 269L285 270L280 269ZM295 273L295 274L297 274L295 273ZM349 342L347 360L354 362 Q 361 361 365 363L366 361L367 348 Q 365 346 368 345L349 342ZM344 360L345 376L347 362L344 360Z" /><path fill="rgb(88,36,126)" d="M190 125L193 125.5L193 219.5L190 221.5L190 125Z" /><path fill="rgb(88,36,126)" d="M116.5 185L137.5 185L138 186.5L136.5 188L115.5 188L114.5 186L116.5 185Z" /><path fill="rgb(88,36,126)" d="M190 284L270.5 284L271 285.5 Q 268.8 289.3 261.5 288L259.5 288L199.5 288L198.5 287L196.5 288L194.5 287L193 288.5L193 389L115.5 389L115 387L188.5 387L190 385.5L190 284Z" /><path fill="rgb(88,36,126)" d="M176 288L185.5 288L186 288.5L186 380.5L184.5 382L139 382L139 363.5L140.5 362L159.5 362L162 359.5L162 354L173.5 354L176 351.5L176 288Z" /><path fill="rgb(88,36,126)" d="M357.5 345 Q 362.9 343.1 362 346.5 Q 365.2 349 364 355 Q 358.8 356.8 361 349.5L359.5 350L358 350L358 348 Q 355.3 349.1 356 346.5L357.5 345Z" /><path fill="rgb(229,241,240)" d="M246.5 108L249 108.5L246.5 109L246.5 108Z" /><path fill="rgb(229,241,240)" d="M254.5 109L257 109.5L254.5 110L254.5 109Z" /><path fill="rgb(229,241,240)" d="M261.5 110L264 110.5L261.5 111L261.5 110Z" /><path fill="rgb(229,241,240)" d="M269.5 111L272 111.5L269.5 112L269.5 111Z" /><path fill="rgb(229,241,240)" d="M276.5 112L279 112.5L276.5 113L276.5 112Z" /><path fill="rgb(229,241,240)" d="M284.5 113L287 113.5L284.5 114L284.5 113Z" /><path fill="rgb(229,241,240)" d="M110.5 114L193.5 114L196 115.5L194.5 116L193.5 115L110.5 115L108.5 118L108 116.5L110.5 114Z" /><path fill="rgb(229,241,240)" d="M292.5 114L295 114.5L292.5 115L292.5 114Z" /><path fill="rgb(229,241,240)" d="M312.5 114L348.5 114L352 116.5L351.5 120L351 116L348.5 115L312.5 115L312.5 114Z" /><path fill="rgb(229,241,240)" d="M196.5 117L198 121.5L196 122L196.5 117Z" /><path fill="rgb(229,241,240)" d="M112.5 119L189.5 119L190 122L115.5 122L115 122.5L115 144.5L111 146L111 120.5L112.5 119Z" /><path fill="rgb(229,241,240)" d="M332.5 119L346.5 119L347 120.5 Q 345.5 123.5 339.5 122 Q 338.2 118.8 332.5 120L332.5 119Z" /><path fill="rgb(229,241,240)" d="M238.5 121L239 123.5L238 123.5L238.5 121Z" /><path fill="rgb(229,241,240)" d="M202.5 122L205 122.5L202.5 123L202.5 122Z" /><path fill="rgb(229,241,240)" d="M351.5 122L352 133.5L351 133.5L351.5 122Z" /><path fill="rgb(229,241,240)" d="M210.5 123L213 123.5L210.5 124L210.5 123Z" /><path fill="rgb(229,241,240)" d="M217.5 124L220 124.5L217.5 125L217.5 124Z" /><path fill="rgb(229,241,240)" d="M225.5 125L228 125.5L225.5 126L225.5 125Z" /><path fill="rgb(229,241,240)" d="M232.5 126L235 126.5L232.5 127L232.5 126Z" /><path fill="rgb(229,241,240)" d="M338 130L340 130.5L340 140 Q 336.3 141.5 337 138.5L338 137.5L338 130Z" /><path fill="rgb(229,241,240)" d="M352.5 142L355 142.5L352.5 143L352.5 142Z" /><path fill="rgb(229,241,240)" d="M108.5 144L109 168.5L108 168.5L108.5 144Z" /><path fill="rgb(229,241,240)" d="M355.5 148L356 150.5L355 150.5L355.5 148Z" /><path fill="rgb(229,241,240)" d="M111 150L115 150.5L115 183.5L112.5 185L111 183.5L111 150Z" /><path fill="rgb(229,241,240)" d="M337 162L339 162L339 168L337 168L337 162Z" /><path fill="rgb(229,241,240)" d="M253.5 170L257 170.5L253.5 171L253.5 170Z" /><path fill="rgb(229,241,240)" d="M261.5 171L264 171.5L261.5 172L261.5 171Z" /><path fill="rgb(229,241,240)" d="M337.5 171L339 175 Q 335.2 176.2 337.5 171Z" /><path fill="rgb(229,241,240)" d="M270 173L274 173L274 182.5 Q 272.5 185.5 271 182.5L270 179.5L270 177.5L270 173Z" /><path fill="rgb(229,241,240)" d="M267.5 175L268 191L265 190.5L267 190L267.5 175Z" /><path fill="rgb(229,241,240)" d="M337 176 Q 340 175 339 178 Q 336 179 337 176Z" /><path fill="rgb(229,241,240)" d="M251.5 183L252 185.5L251 185.5L251.5 183Z" /><path fill="rgb(229,241,240)" d="M140.5 187L141 326L115.5 326L114 327.5L114 359.5L112.5 360L111 358.5L111 329.5L112 326.5L113.5 324L139 324L139 313.5L139 311.5L140 276.5L139 275.5L139 189.5L140.5 187Z" /><path fill="rgb(229,241,240)" d="M272.5 187L274 188.5L274 197.5L273 198.5L273 211L271 210.5L271 188.5L272.5 187Z" /><path fill="rgb(229,241,240)" d="M258.5 189L261 189.5L258.5 190L258.5 189Z" /><path fill="rgb(229,241,240)" d="M110.5 190L115.5 191L116.5 190L135.5 190 Q 138.3 191.3 137 196.5L136 196.5 Q 136.6 191.1 135.5 191L116.5 191L112.5 192L110.5 190Z" /><path fill="rgb(229,241,240)" d="M351.5 190L350.5 192L324 191.5L350.5 191L351.5 190Z" /><path fill="rgb(229,241,240)" d="M323.5 193L324 202.5L323 202.5L323.5 193Z" /><path fill="rgb(229,241,240)" d="M211.5 204L214 204.5L211.5 205L211.5 204Z" /><path fill="rgb(229,241,240)" d="M219.5 205L222 205.5L219.5 206L219.5 205Z" /><path fill="rgb(229,241,240)" d="M313.5 206L314 222.5L313 222.5L313.5 206Z" /><path fill="rgb(229,241,240)" d="M208.5 207L209 209.5L208 209.5L208.5 207Z" /><path fill="rgb(229,241,240)" d="M226.5 211L227 213.5L226 213.5L226.5 211Z" /><path fill="rgb(229,241,240)" d="M323.5 213L324 252.5L323 252.5L323.5 213Z" /><path fill="rgb(229,241,240)" d="M207.5 215L208 218 Q 211.8 217 213 219.5L211.5 219 Q 204.5 221 207.5 215Z" /><path fill="rgb(229,241,240)" d="M217.5 218L220 218.5L217.5 219L217.5 218Z" /><path fill="rgb(229,241,240)" d="M221.5 218L226 218.5L221.5 219L221.5 218Z" /><path fill="rgb(229,241,240)" d="M195.5 223L224.5 223L225 225L192 224.5L195.5 223Z" /><path fill="rgb(229,241,240)" d="M323.5 254L324 276.5L325 277.5L323 276.5L323.5 254Z" /><path fill="rgb(229,241,240)" d="M329.5 278L332 278.5L329.5 279L329.5 278Z" /><path fill="rgb(229,241,240)" d="M212.5 289L266.5 289L268 290.5L267.5 293L267 290L212.5 290L212.5 289Z" /><path fill="rgb(229,241,240)" d="M336.5 290L337 292.5L336 292.5L336.5 290Z" /><path fill="rgb(229,241,240)" d="M345.5 300L348 300.5L345.5 301L345.5 300Z" /><path fill="rgb(229,241,240)" d="M353.5 301L354.5 303L353.5 301Z" /><path fill="rgb(229,241,240)" d="M354.5 304L355 306.5L354 306.5L354.5 304Z" /><path fill="rgb(229,241,240)" d="M353.5 311L354 313.5L353 313.5L353.5 311Z" /><path fill="rgb(229,241,240)" d="M267.5 319L268 321.5L267 321.5L267.5 319Z" /><path fill="rgb(229,241,240)" d="M109.5 320L108.5 322L109.5 320Z" /><path fill="rgb(229,241,240)" d="M361.5 322L364 322.5L361.5 323L361.5 322Z" /><path fill="rgb(229,241,240)" d="M369.5 323L372 324.5L371.5 328L371 324L369.5 323Z" /><path fill="rgb(229,241,240)" d="M267.5 325L268 385.5L267 385.5L267.5 325Z" /><path fill="rgb(229,241,240)" d="M108.5 332L109 360.5L108 360.5L108.5 332Z" /><path fill="rgb(229,241,240)" d="M370.5 333L371 335.5L370 335.5L370.5 333Z" /><path fill="rgb(229,241,240)" d="M271.5 337L272 339.5L271 339.5L271.5 337Z" /><path fill="rgb(229,241,240)" d="M369.5 340L370 343L372 343.5L370.5 344 Q 368 343 369.5 340Z" /><path fill="rgb(229,241,240)" d="M377.5 344L380 344.5L377.5 345L377.5 344Z" /><path fill="rgb(229,241,240)" d="M384.5 345L387 345.5L384.5 346L384.5 345Z" /><path fill="rgb(229,241,240)" d="M388.5 346L389 348.5L388 348.5L388.5 346Z" /><path fill="rgb(229,241,240)" d="M387.5 354L388 356.5L387 356.5L387.5 354Z" /><path fill="rgb(229,241,240)" d="M386.5 361L387 363.5L386 363.5L386.5 361Z" /><path fill="rgb(229,241,240)" d="M108.5 365L109 370.5L108 370.5L108.5 365Z" /><path fill="rgb(229,241,240)" d="M385.5 369L386 371.5L385 371.5L385.5 369Z" /><path fill="rgb(229,241,240)" d="M384.5 376L385 378.5L384 378.5L384.5 376Z" /><path fill="rgb(229,241,240)" d="M354.5 382L358 382.5L354.5 383L354.5 382Z" /><path fill="rgb(229,241,240)" d="M361.5 383L365 383.5L361.5 384L361.5 383Z" /><path fill="rgb(229,241,240)" d="M383.5 383L384 385.5L383 385.5L383.5 383Z" /><path fill="rgb(229,241,240)" d="M369.5 384L372 384.5L369.5 385L369.5 384Z" /><path fill="rgb(229,241,240)" d="M376.5 385L380 385.5L376.5 386L376.5 385Z" /><path fill="rgb(229,241,240)" d="M108.5 389L112 391.5L110.5 392L108.5 389Z" /><path fill="rgb(229,241,240)" d="M195.5 390L194.5 392L195.5 390Z" /><path fill="rgb(229,241,240)" d="M268.5 391L274 391.5L268.5 392L268.5 391Z" /><path fill="rgb(229,241,240)" d="M150.5 392L153 392.5L150.5 393L150.5 392Z" /><path fill="rgb(229,241,240)" d="M162.5 392L169 392.5L162.5 393L162.5 392Z" /><path fill="rgb(229,241,240)" d="M175.5 392L182 392.5L175.5 393L175.5 392Z" /><path fill="rgb(254,254,255)" d="M109.5 114L108.5 116L109.5 114Z" /><path fill="rgb(254,254,255)" d="M295.5 114L308 114.5L295.5 115L295.5 114Z" /><path fill="rgb(254,254,255)" d="M349.5 114L352 115.5L350.5 115L349.5 114Z" /><path fill="rgb(254,254,255)" d="M352.5 118L353 125.5L352 125.5L352.5 118Z" /><path fill="rgb(254,254,255)" d="M107.5 120L108 122.5L107 122.5L107.5 120Z" /><path fill="rgb(254,254,255)" d="M107.5 132L108 134.5L107 134.5L107.5 132Z" /><path fill="rgb(254,254,255)" d="M352.5 133L353 141.5L352 141.5L352.5 133Z" /><path fill="rgb(254,254,255)" d="M352.5 164L353 189.5L352 189.5L352.5 164Z" /><path fill="rgb(254,254,255)" d="M107.5 172L108 186.5L107 186.5L107.5 172Z" /><path fill="rgb(254,254,255)" d="M266 172 Q 269 170.8 268 174.5L267 175.5L266.5 190L266 172Z" /><path fill="rgb(254,254,255)" d="M109.5 190L112 191.5L109 192L109.5 190Z" /><path fill="rgb(254,254,255)" d="M116.5 191L136 191.5L116.5 192L116.5 191Z" /><path fill="rgb(254,254,255)" d="M351.5 191L350.5 193L324 192.5L350.5 192L351.5 191Z" /><path fill="rgb(254,254,255)" d="M135.5 201L136 317.5L135 320L110 319.5L134 319L135 307.5L134 306.5L134 292.5L135 291.5L135.5 201Z" /><path fill="rgb(254,254,255)" d="M212.5 218L217 218.5L212.5 219L212.5 218Z" /><path fill="rgb(254,254,255)" d="M197.5 290L266.5 290L267 292.5L268 293.5L268 318.5L267 321.5L268 324.5L267 325.5L267 389.5L268 392L353 392.5L346.5 394L343.5 393L338.5 394L337.5 393L305.5 393L300.5 394L296.5 393L292.5 394L291.5 393L279.5 393L276.5 394 Q 274.7 391.2 268.5 393L266 390.5L266 291L197 291L196.5 389L196 291.5L197.5 290Z" /><path fill="rgb(254,254,255)" d="M353.5 382L354 388.5L353 388.5L353.5 382Z" /><path fill="rgb(254,254,255)" d="M108.5 390L109.5 392L108.5 390Z" /><path fill="rgb(254,254,255)" d="M195.5 391L194.5 393L184.5 393L183.5 394L136.5 394L135.5 393L121.5 393L116.5 394L111 392.5L149.5 392L152.5 393L153.5 392L161.5 392 Q 163 394.5 168.5 393 Q 169.7 390.8 174.5 392 Q 176 394.5 181.5 393L182.5 392L194.5 392L195.5 391Z" /><path fill="rgb(50,180,173)" d="M175.5 116L193.5 116L196 118.5L193.5 124L192 123.5L194 123L194 117.5L193.5 117L175.5 117L175.5 116Z" /><path fill="rgb(50,180,173)" d="M317.5 116L348 116.5L317.5 117L317.5 116Z" /><path fill="rgb(50,180,173)" d="M346.5 123L350 124.5L346 126.5L346 141.5L344.5 142L345 140.5L345 124.5L346.5 123Z" /><path fill="rgb(50,180,173)" d="M188.5 124L189 146.5L188 147.5L188 165.5 Q 190.2 166.8 189 171.5 Q 186.3 173.3 188 179.5L189 180.5L189 213.5 Q 186.3 215.2 188 221.5L189 226L229.5 226L230.5 227L244 228L242 248L251.5 249L253 250.5L253 280.5L254 281.5L189 282.5L189 284.5L187.5 288L187 286L176.5 286L175 287.5L175 349.5L174 352L161.5 352L160 353.5 Q 161.3 358.8 158.5 360L139.5 360L138 361.5L136 366.5L135 375.5L136 377.5L134.5 380 Q 136.8 379.3 136 381.5L140.5 384L185.5 384L187 382.5L188.5 338L189 385.5L188 385.5L187.5 384L177.5 386L154.5 386L153.5 385L141.5 385L136.5 386L136.5 384L125 384.5L131 385.5L123.5 386L123.5 384 Q 116.7 385.8 115 382.5L116 327L142 327L142 266.5L143 264.5L142 263.5L142 185L139 184.5L140 182.5L138 178.5L139 164.5L140.5 163 Q 148 162 151 164L151 264.5L150 265.5L153.5 267L171.5 267L175 266L175 132.5L176.5 131L188 131L188.5 124ZM216 238L214 240L214 254L231 254L232 255L234 254L236 254L236 240L235 238L216 238Z" /><path fill="rgb(50,180,173)" d="M115.5 146L136.5 146L137 148.5L135.5 150L117.5 150L112 147.5L115.5 146Z" /><path fill="rgb(50,180,173)" d="M344.5 162L346 163.5L346 183.5L344 184.5L345 183.5L345 163.5L344.5 162Z" /><path fill="rgb(50,180,173)" d="M292.5 175L293.5 176L307 177L306.5 256L302 255L304 236.5L297.5 234L285 233L287 213L274 211.5L275 209.5L275 207.5L275 198.5L276.5 197L290.5 198L293 195.5L293 176.5L292.5 175Z" /><path fill="rgb(50,180,173)" d="M269.5 184L275 185.5L269.5 187L269.5 184Z" /><path fill="rgb(50,180,173)" d="M318.5 184L338 184.5L318 185L317.5 257L317 185.5L318.5 184Z" /><path fill="rgb(50,180,173)" d="M139.5 186L138.5 188L139.5 186Z" /><path fill="rgb(50,180,173)" d="M110.5 189L113 189.5L110.5 190L110.5 189Z" /><path fill="rgb(50,180,173)" d="M193 220L212 220.5L194.5 221L193.5 222L193 220Z" /><path fill="rgb(50,180,173)" d="M216.5 220L225.5 220L226 221.5L224.5 221L216.5 221L216.5 220Z" /><path fill="rgb(50,180,173)" d="M269 272L278 272L278 278.5L277 279.5L276 292L295 295L293 313.5L294.5 315L306 316L306 330.5L304.5 332L285.5 332L284 333.5L288.5 336L304 336L304 349.5L303 350.5L302 362.5 Q 303.8 365.8 305.5 362L317 362L317 380.5L318 383L343.5 383L347 381L347 386L345.5 386L346 384.5L345.5 383L337.5 385L336.5 384L323.5 384L318.5 385L317.5 384L275.5 384L274 382.5L274 351.5L275 348.5L274 343.5L275 342.5L275 287.5L273.5 285L268 289.5L273 282.5L270.5 282L269.5 283L258.5 283L258.5 282L267.5 282L269 280.5L269 272ZM290 345L281 347L279 349 Q 276 348 277 351 Q 274 352 279 354 Q 280 351 285 352L287 350L286 348L290 347L290 345ZM285 357L285 359L290 359L290 357L285 357ZM302 364L298 368L298 369L290 369L290 376 Q 282 375 277 379L279 381L303 381L305 380L301 369L302 366L302 364Z" /><path fill="rgb(50,180,173)" d="M136.5 319L137 320.5L135.5 322L111.5 322L111.5 321L135.5 321L136.5 319Z" /><path fill="rgb(50,180,173)" d="M110.5 361L111.5 389L115.5 386L115.5 387L113 388.5 Q 114.1 391.8 111.5 391L109 388.5L109 372.5 Q 111.5 371 110 365.5L109 362.5L110.5 361Z" /><path fill="rgb(50,180,173)" d="M269.5 361L270 385.5L269 385.5L269.5 361Z" /><path fill="rgb(50,180,173)" d="M273.5 386L275 386.5L272 388.5L273 390.5L271.5 390 Q 269.3 390.8 270 388.5L273.5 386Z" /><path fill="rgb(255,255,255)" d="M0 0L500 0L500 500L0 500L0 0ZM240 107L238 127L236 126L207 123L197 121L196 116L196 114L110 114L107 121L108 124L108 132L107 133L108 136L108 172L107 173L107 187L109 191L110 192L136 192L136 201L135 202L135 292L134 293L134 307L135 308L134 319L111 319L110 320L108 321L108 391L112 393L117 394L122 393L136 393L137 394L184 394L185 393L195 393L197 389L197 291L266 291L266 391L269 393 Q 275 391 277 394L280 393L292 393L293 394L297 393L301 394L306 393L338 393L339 394L344 393L347 394L353 393L354 383L375 385L376 386L383 386L384 387L389 347L388 345L374 344L370 343L372 323L353 321L355 301L336 299L338 279L326 278L324 277L324 194L325 193L351 193L353 190L353 165L355 159L356 145L357 144L353 142L353 134L352 133 Q 351 127 353 126L352 116L351 114L288 114L287 113L258 110L250 108L243 108L240 107Z" /><path fill="rgb(255,255,255)" d="M254.5 171L266 172L266 189.5 Q 266 190.5 261.5 190L251 187.5L252 186.5L253 172.5L254.5 171Z" /><path fill="rgb(255,255,255)" d="M209.5 204L227 207L226 218L208 218L208 211.5L209.5 204Z" /><path fill="rgb(82,132,149)" d="M246.5 109L250 109.5L246.5 110L246.5 109Z" /><path fill="rgb(82,132,149)" d="M254.5 110L257 110.5L254.5 111L254.5 110Z" /><path fill="rgb(82,132,149)" d="M262.5 111L265 111.5L262.5 112L262.5 111Z" /><path fill="rgb(82,132,149)" d="M269.5 112L272 112.5L269.5 113L269.5 112Z" /><path fill="rgb(82,132,149)" d="M240.5 113L241 115.5L240 115.5L240.5 113Z" /><path fill="rgb(82,132,149)" d="M277.5 113L280 113.5L277.5 114L277.5 113Z" /><path fill="rgb(82,132,149)" d="M284.5 114L288 114.5L284.5 115L284.5 114Z" /><path fill="rgb(82,132,149)" d="M293.5 115L297 115.5L293.5 116L293.5 115Z" /><path fill="rgb(82,132,149)" d="M117.5 116L175 116.5L117.5 117L117.5 116Z" /><path fill="rgb(82,132,149)" d="M302.5 116L307 116.5L302.5 117L302.5 116Z" /><path fill="rgb(82,132,149)" d="M309.5 117L314 117.5L309.5 118L309.5 117Z" /><path fill="rgb(82,132,149)" d="M316.5 118L320 118.5L316.5 119L316.5 118Z" /><path fill="rgb(82,132,149)" d="M323.5 119L327 119.5L323.5 120L323.5 119Z" /><path fill="rgb(82,132,149)" d="M330.5 120L334 120.5L330.5 121L330.5 120Z" /><path fill="rgb(82,132,149)" d="M239.5 121L240 123.5L239 123.5L239.5 121Z" /><path fill="rgb(82,132,149)" d="M195.5 122L196 125.5L195 126.5L195 181.5L196 186.5L195 187.5L195 198.5L196 200.5L194 202.5L194 217.5L195.5 219L207 219.5L193 220L191.5 223L189.5 224 Q 186.7 221.3 188 214.5L189 213.5L189 180.5 Q 186.3 178.7 188 172.5 Q 190.2 171.3 189 166.5L188 165.5L188 147.5L189 146.5L189 123L193.5 124L195.5 122ZM190 125L190 222L193 220L193 126L190 125Z" /><path fill="rgb(82,132,149)" d="M338.5 122L339 124.5L338 124.5L338.5 122Z" /><path fill="rgb(82,132,149)" d="M202.5 123L205 123.5L202.5 124L202.5 123Z" /><path fill="rgb(82,132,149)" d="M210.5 124L213 124.5L210.5 125L210.5 124Z" /><path fill="rgb(82,132,149)" d="M217.5 125L220 125.5L217.5 126L217.5 125Z" /><path fill="rgb(82,132,149)" d="M347.5 125L350 125.5L350 132.5L351 133.5L351 142.5L349 141.5L349 127.5L347 127L346.5 142L346 126.5L347.5 125Z" /><path fill="rgb(82,132,149)" d="M225.5 126L228 126.5L225.5 127L225.5 126Z" /><path fill="rgb(82,132,149)" d="M232.5 127L235 127.5L232.5 128L232.5 127Z" /><path fill="rgb(82,132,149)" d="M337.5 128L338 131.5L337 131.5L337.5 128Z" /><path fill="rgb(82,132,149)" d="M239 129L243 129.5L242 132L245 131.5L244 129.5L245.5 130L252.5 130L258 131.5L255 145.5L256 146.5L254.5 149L257 149.5L253.5 150L245 148.5L248 147.5L245 146L240.5 138L240 142 Q 236.2 143.5 237 140.5L239 129Z" /><path fill="rgb(82,132,149)" d="M260.5 131L263 131.5L260.5 132L260.5 131Z" /><path fill="rgb(82,132,149)" d="M268.5 132L271 132.5L268.5 133L268.5 132Z" /><path fill="rgb(82,132,149)" d="M275.5 133L280 133.5L275.5 134L275.5 133Z" /><path fill="rgb(82,132,149)" d="M292.5 135L295 135.5L292.5 136L292.5 135Z" /><path fill="rgb(82,132,149)" d="M299.5 136L302 136.5L299.5 137L299.5 136Z" /><path fill="rgb(82,132,149)" d="M336.5 136L337 140.5L336 140.5L336.5 136Z" /><path fill="rgb(82,132,149)" d="M306.5 137L310 137.5L306.5 138L306.5 137Z" /><path fill="rgb(82,132,149)" d="M313.5 138L317 138.5L313.5 139L313.5 138Z" /><path fill="rgb(82,132,149)" d="M319.5 139L324 139.5L319.5 140L319.5 139Z" /><path fill="rgb(82,132,149)" d="M326.5 140L331 140.5L326.5 141L326.5 140Z" /><path fill="rgb(82,132,149)" d="M332.5 141 Q 336.3 140 335 143L332.5 141Z" /><path fill="rgb(82,132,149)" d="M339.5 141L343 141.5L339.5 142L339.5 141Z" /><path fill="rgb(82,132,149)" d="M353.5 143L356 144.5L354.5 144L353.5 143Z" /><path fill="rgb(82,132,149)" d="M334.5 146L335 149.5L331.5 152L331.5 151 Q 333.8 151.8 333 149.5L334.5 146Z" /><path fill="rgb(82,132,149)" d="M110 147L112 147.5L110 148.5L110 147Z" /><path fill="rgb(82,132,149)" d="M238.5 147L241 147.5L238.5 148L238.5 147Z" /><path fill="rgb(82,132,149)" d="M354.5 149L355 151.5L354 151.5L354.5 149Z" /><path fill="rgb(82,132,149)" d="M262.5 150L265 150.5L262.5 151L262.5 150Z" /><path fill="rgb(82,132,149)" d="M270.5 151L273 151.5L270.5 152L270.5 151Z" /><path fill="rgb(82,132,149)" d="M234.5 152L235 157.5L234 157.5L234.5 152Z" /><path fill="rgb(82,132,149)" d="M333.5 153L334 157.5L333 160L336 160.5L333.5 162L333 160L328 159.5L333 157.5L332 155.5L333.5 153Z" /><path fill="rgb(82,132,149)" d="M305.5 156L308 156.5L305.5 157L305.5 156Z" /><path fill="rgb(82,132,149)" d="M313.5 157L316 157.5L313.5 158L313.5 157Z" /><path fill="rgb(82,132,149)" d="M353.5 157L354 159.5L353 159.5L353.5 157Z" /><path fill="rgb(82,132,149)" d="M320.5 158L324 158.5L320.5 159L320.5 158Z" /><path fill="rgb(82,132,149)" d="M339.5 161L343 161.5L339.5 162L339.5 161Z" /><path fill="rgb(82,132,149)" d="M345.5 162L347 162.5L347 183.5L345 184.5L346 183.5L346 163.5L345.5 162Z" /><path fill="rgb(82,132,149)" d="M349 163L351 163.5L351 188.5L349.5 190L326.5 190L323 191L322 193.5L322 276.5L325 278.5L323.5 279L321 278L321 266.5L320 264.5 Q 322.5 263 321 257.5L321 255.5L320 251.5 Q 322.5 250 321 244.5L321 242.5L321 189.5L322.5 188L323.5 189L345.5 189L350 186.5L349 182.5L349 163Z" /><path fill="rgb(82,132,149)" d="M332.5 166L333 169.5L332 169.5L332.5 166Z" /><path fill="rgb(82,132,149)" d="M253.5 169L256 169.5L253 170L252.5 172L252 170.5L253.5 169Z" /><path fill="rgb(82,132,149)" d="M261.5 170L264 170.5L261.5 171L261.5 170Z" /><path fill="rgb(82,132,149)" d="M274.5 172L278 172.5L274.5 173L274.5 172Z" /><path fill="rgb(82,132,149)" d="M280.5 173L285 173.5L280.5 174L280.5 173Z" /><path fill="rgb(82,132,149)" d="M331.5 173L332 176.5L331 176.5L331.5 173Z" /><path fill="rgb(82,132,149)" d="M287.5 174L292 174.5L287.5 175L287.5 174Z" /><path fill="rgb(82,132,149)" d="M293.5 175L298 175.5L293.5 176L293.5 175Z" /><path fill="rgb(82,132,149)" d="M251.5 176L252 178.5L251 178.5L251.5 176Z" /><path fill="rgb(82,132,149)" d="M301.5 176L307 176.5L301.5 177L301.5 176Z" /><path fill="rgb(82,132,149)" d="M311.5 177L315 177.5L311.5 178L311.5 177Z" /><path fill="rgb(82,132,149)" d="M318.5 178L322 178.5L318.5 179L318.5 178Z" /><path fill="rgb(82,132,149)" d="M325.5 179L329 179.5L325.5 180L325.5 179Z" /><path fill="rgb(82,132,149)" d="M250.5 183L251 186.5L250 186.5L250.5 183Z" /><path fill="rgb(82,132,149)" d="M117.5 184L138.5 184L140 185.5L136.5 190L113.5 190L112 188.5L114.5 185L116 185.5L114 186.5L115.5 188L136.5 188L138 185L117.5 185L117.5 184Z" /><path fill="rgb(82,132,149)" d="M318.5 185L319 256.5L315.5 258L315.5 257L318 256.5L318.5 185Z" /><path fill="rgb(82,132,149)" d="M250.5 188L254 189.5L251.5 190L250.5 188Z" /><path fill="rgb(82,132,149)" d="M258.5 190L262 190.5L258.5 191L258.5 190Z" /><path fill="rgb(82,132,149)" d="M266.5 191 Q 272.6 189.2 270 196.5L269 196.5 Q 271.1 190.7 266.5 192L266.5 191Z" /><path fill="rgb(82,132,149)" d="M268.5 199L269 204.5L268 204.5L268.5 199Z" /><path fill="rgb(82,132,149)" d="M220.5 204L223 204.5L220.5 205L220.5 204Z" /><path fill="rgb(82,132,149)" d="M267.5 206L268 208.5L267 208.5L267.5 206Z" /><path fill="rgb(82,132,149)" d="M207.5 207L208 209.5L207 209.5L207.5 207Z" /><path fill="rgb(82,132,149)" d="M269.5 211L272 211.5L269.5 212L269.5 211Z" /><path fill="rgb(82,132,149)" d="M277.5 212L282 212.5L277.5 213L277.5 212Z" /><path fill="rgb(82,132,149)" d="M285.5 213 Q 288.3 212.4 287 218.5L286 218.5L285.5 213Z" /><path fill="rgb(82,132,149)" d="M206.5 215L207 217.5L206 217.5L206.5 215Z" /><path fill="rgb(82,132,149)" d="M285.5 222L286 225.5L285 225.5L285.5 222Z" /><path fill="rgb(82,132,149)" d="M226.5 225L243.5 227L245 228.5L244.5 234L244 228L230.5 227L226.5 226L226.5 225Z" /><path fill="rgb(82,132,149)" d="M284.5 229L285 232.5L284 232.5L284.5 229Z" /><path fill="rgb(82,132,149)" d="M286.5 233L290 233.5L286.5 234L286.5 233Z" /><path fill="rgb(82,132,149)" d="M293.5 234L298 234.5L293.5 235L293.5 234Z" /><path fill="rgb(82,132,149)" d="M243.5 235L244 241.5L243 241.5L243.5 235Z" /><path fill="rgb(82,132,149)" d="M301.5 235L304 236.5L303.5 240L303 236L301.5 235Z" /><path fill="rgb(82,132,149)" d="M242.5 243L243 247L245 247.5L242 248L242.5 243Z" /><path fill="rgb(82,132,149)" d="M302.5 243L303 247.5L302 247.5L302.5 243Z" /><path fill="rgb(82,132,149)" d="M246.5 248 Q 251.9 247.4 254 249L254 278.5L255.5 280L266.5 280L268 278.5L268 276.5L268 271L275.5 271L275.5 272L269 272L269 280.5L267.5 282L254.5 282L253 280.5L253 250.5L251.5 249 Q 245.5 250.2 246.5 248Z" /><path fill="rgb(82,132,149)" d="M301.5 251L302 255L306 255.5L302.5 256 Q 299.8 254.8 301.5 251Z" /><path fill="rgb(82,132,149)" d="M308.5 256L312 256.5L308.5 257L308.5 256Z" /><path fill="rgb(82,132,149)" d="M278.5 272L279 277.5L278 277.5L278.5 272Z" /><path fill="rgb(82,132,149)" d="M277.5 279L278 285.5L277 291L279 291.5L276 292L277.5 279Z" /><path fill="rgb(82,132,149)" d="M329.5 279L332 279.5L329.5 280L329.5 279Z" /><path fill="rgb(82,132,149)" d="M336.5 282L337 284.5L336 284.5L336.5 282Z" /><path fill="rgb(82,132,149)" d="M190.5 283L271.5 283L272 285.5L268.5 289L196.5 289L195 290.5L195 389.5L193.5 391L124.5 391 Q 123.3 393.3 118.5 392L116.5 391L114.5 391 Q 111.9 391.8 113 388.5L115 387.5L115.5 389L193 389L193 288.5L194.5 287L197.5 288L199.5 288L259.5 288L260.5 287 Q 262 289.5 267.5 288L271 285.5L270.5 284L190 284L190 385.5L188.5 387L116 386.5L189 386L188.5 338L187 382.5L185.5 384L140.5 384L136 381.5 Q 136.8 379.3 134.5 380L136 377.5L135 373.5 Q 137.5 372 136 366.5L139.5 360L158.5 360L160 358.5 Q 158.8 353.3 161.5 352L173.5 352L174 350.5L175 349.5L175 287.5L176.5 286L186.5 286L187 287.5L189 286.5L190.5 283ZM176 288L176 352L174 354L162 354L162 360L160 362L141 362L139 364L139 382L185 382L186 381L186 289L186 288L176 288Z" /><path fill="rgb(82,132,149)" d="M335.5 290L336 292.5L335 292.5L335.5 290Z" /><path fill="rgb(82,132,149)" d="M280.5 292L285 292.5L280.5 293L280.5 292Z" /><path fill="rgb(82,132,149)" d="M286.5 293L296 294L294 314L305.5 315L307 316.5L308 319.5L307 320.5L307 360L316.5 360L319 362.5L319 380.5L320.5 382L342.5 382L346.5 380 Q 349 381 348 385.5L346.5 387L275.5 387L275.5 386L346.5 386L347 381L343.5 383L318 383L317 380.5L317 362L305.5 362L303.5 364 Q 301.3 363.3 302 359.5L304 349.5L304 336L288.5 336L284 333.5L285.5 332L304.5 332L306 330.5L306 316.5 Q 306 315.5 301.5 316 Q 300 313.5 294.5 315L293 313.5L295 295 Q 292.6 293.3 286.5 294L286.5 293Z" /><path fill="rgb(82,132,149)" d="M338.5 300L341 300.5L338.5 301L338.5 300Z" /><path fill="rgb(82,132,149)" d="M345.5 301L348 301.5L345.5 302L345.5 301Z" /><path fill="rgb(82,132,149)" d="M353.5 304L354 306.5L353 306.5L353.5 304Z" /><path fill="rgb(82,132,149)" d="M352.5 311L353 314.5L352 314.5L352.5 311Z" /><path fill="rgb(82,132,149)" d="M353.5 322L357 322.5L353.5 323L353.5 322Z" /><path fill="rgb(82,132,149)" d="M361.5 323L365 323.5L361.5 324L361.5 323Z" /><path fill="rgb(82,132,149)" d="M368.5 324L371 325.5L370.5 328L370 325L368.5 324Z" /><path fill="rgb(82,132,149)" d="M368.5 340L369 343.5L368 343.5L368.5 340Z" /><path fill="rgb(82,132,149)" d="M289.5 345L290 347L286 347.5L287 349.5L284.5 352 Q 279.5 351 278.5 354 Q 274.2 352.3 277 350.5 Q 276.3 348.3 278.5 349L280.5 347L289.5 345Z" /><path fill="rgb(82,132,149)" d="M384.5 346L388 347.5L387.5 349L387 347 Q 383.7 347.8 384.5 346Z" /><path fill="rgb(82,132,149)" d="M285 357L290 357L290 359L285 359L285 357Z" /><path fill="rgb(82,132,149)" d="M344 360L347 361.5L344.5 376L344 360Z" /><path fill="rgb(82,132,149)" d="M301.5 364L302 365.5L301 368.5L305 379.5L302.5 381L278.5 381L277 378.5 Q 281.5 374.8 290 376L290 369L297.5 369L298 367.5L301.5 364Z" /><path fill="rgb(82,132,149)" d="M351.5 381L353 381.5L352 382.5L352 390L349.5 391L274.5 391L272 390L273.5 387L273.5 389L349.5 389 Q 350.8 388.8 350 382.5L351.5 381Z" /></svg>